<svg xmlns="http://www.w3.org/2000/svg" xmlns:xlink="http://www.w3.org/1999/xlink" width="340" zoomAndPan="magnify" viewBox="0 0 255 254.999984" height="340" preserveAspectRatio="xMidYMid meet" version="1.0"><defs><clipPath id="4e5e0a8541"><path d="M 29 17.238281 L 232 17.238281 L 232 221 L 29 221 Z M 29 17.238281 " clip-rule="nonzero"/></clipPath><clipPath id="04e2a5e824"><path d="M 145 17.238281 L 148 17.238281 L 148 38 L 145 38 Z M 145 17.238281 " clip-rule="nonzero"/></clipPath></defs><g clip-path="url(#4e5e0a8541)"><path fill="#caddff" d="M 227.1875 159.746094 C 211.101562 204.367188 140.5625 237.707031 84.71875 210.621094 C 36.78125 187.363281 20.136719 129.496094 34.046875 91.460938 C 42.21875 69.113281 61.34375 52.492188 66.078125 48.378906 C 85.609375 31.402344 105.171875 25.007812 109.582031 23.632812 C 121.414062 19.933594 134.308594 18 145.96875 17.667969 C 146.34375 17.65625 146.722656 17.648438 147.09375 17.640625 L 147.105469 17.640625 C 165.636719 17.273438 180.8125 21.007812 183.203125 28.214844 C 184.859375 33.210938 178.886719 35.40625 178.425781 43.335938 C 177.464844 59.8125 202.203125 68.085938 216.667969 85.5 C 234.640625 107.140625 234.324219 139.960938 227.1875 159.746094 " fill-opacity="1" fill-rule="nonzero"/></g><path fill="#5479f7" d="M 40.199219 204.578125 C 40.199219 204.578125 39.398438 144.179688 71.640625 126.035156 C 83.566406 119.324219 97.84375 118.414062 111.75 119.007812 C 121.535156 119.425781 130.734375 120.796875 139.550781 126.078125 C 152.070312 133.585938 163.105469 144.851562 169.746094 164.6875 L 175.773438 205.125 L 40.199219 204.578125 " fill-opacity="1" fill-rule="nonzero"/><path fill="#ffffff" d="M 196.964844 162.941406 L 147.027344 162.941406 C 145.375 162.941406 144.359375 161.128906 145.222656 159.71875 L 176.167969 109.03125 C 176.828125 107.949219 178.003906 107.292969 179.269531 107.292969 L 228.792969 107.292969 C 230.625 107.292969 231.75 109.300781 230.796875 110.867188 L 200.066406 161.199219 C 199.40625 162.28125 198.230469 162.941406 196.964844 162.941406 " fill-opacity="1" fill-rule="nonzero"/><path fill="#000000" d="M 179.269531 107.65625 C 178.136719 107.65625 177.070312 108.257812 176.480469 109.222656 L 145.535156 159.910156 C 145.199219 160.457031 145.1875 161.121094 145.5 161.679688 C 145.816406 162.238281 146.382812 162.574219 147.027344 162.574219 L 196.964844 162.574219 C 198.097656 162.574219 199.164062 161.972656 199.753906 161.007812 L 230.480469 110.675781 C 230.863281 110.054688 230.875 109.304688 230.519531 108.667969 C 230.164062 108.035156 229.519531 107.65625 228.792969 107.65625 Z M 196.964844 163.308594 L 147.027344 163.308594 C 146.117188 163.308594 145.308594 162.832031 144.863281 162.039062 C 144.417969 161.242188 144.433594 160.304688 144.910156 159.527344 L 175.855469 108.839844 C 176.578125 107.65625 177.882812 106.925781 179.269531 106.925781 L 228.792969 106.925781 C 229.789062 106.925781 230.671875 107.441406 231.160156 108.3125 C 231.644531 109.179688 231.628906 110.207031 231.109375 111.058594 L 200.378906 161.390625 C 199.65625 162.574219 198.351562 163.308594 196.964844 163.308594 " fill-opacity="1" fill-rule="nonzero"/><path fill="#99b9ff" d="M 208.714844 130.621094 L 173.632812 130.621094 L 175.679688 127.257812 L 210.765625 127.257812 L 208.714844 130.621094 " fill-opacity="1" fill-rule="nonzero"/><path fill="#99b9ff" d="M 212.722656 124.042969 L 177.636719 124.042969 L 183.894531 113.769531 L 218.980469 113.769531 L 212.722656 124.042969 " fill-opacity="1" fill-rule="nonzero"/><path fill="#000000" d="M 193.242188 95.183594 C 193.371094 94.652344 193.324219 94.214844 193.097656 93.875 C 192.871094 93.539062 192.402344 93.21875 191.691406 92.917969 C 190.800781 92.574219 190.21875 92.171875 189.941406 91.703125 C 189.664062 91.234375 189.617188 90.628906 189.796875 89.886719 C 189.988281 89.105469 190.355469 88.46875 190.90625 87.980469 C 191.457031 87.496094 192.109375 87.21875 192.863281 87.148438 L 193.152344 85.96875 C 193.191406 85.808594 193.335938 85.695312 193.5 85.695312 L 193.511719 85.695312 C 193.601562 85.695312 193.683594 85.738281 193.738281 85.804688 C 193.792969 85.875 193.8125 85.96875 193.792969 86.054688 L 193.523438 87.148438 C 194.261719 87.226562 194.773438 87.542969 195.050781 88.097656 C 195.296875 88.585938 195.347656 89.226562 195.195312 90.023438 C 195.160156 90.21875 194.988281 90.359375 194.789062 90.359375 L 194.78125 90.359375 C 194.679688 90.359375 194.582031 90.316406 194.515625 90.238281 C 194.449219 90.160156 194.421875 90.058594 194.4375 89.957031 C 194.519531 89.390625 194.464844 88.925781 194.265625 88.566406 C 194.023438 88.121094 193.601562 87.898438 192.992188 87.898438 C 192.382812 87.898438 191.863281 88.078125 191.429688 88.4375 C 191.003906 88.792969 190.714844 89.269531 190.570312 89.867188 C 190.429688 90.445312 190.476562 90.894531 190.710938 91.21875 C 190.945312 91.542969 191.40625 91.847656 192.09375 92.136719 C 192.777344 92.421875 193.261719 92.695312 193.539062 92.957031 C 193.816406 93.21875 193.996094 93.527344 194.082031 93.882812 C 194.164062 94.242188 194.144531 94.671875 194.023438 95.167969 C 193.832031 95.957031 193.453125 96.589844 192.894531 97.074219 C 192.335938 97.554688 191.664062 97.832031 190.878906 97.898438 L 190.609375 98.996094 C 190.570312 99.152344 190.429688 99.265625 190.265625 99.265625 C 190.175781 99.265625 190.089844 99.222656 190.035156 99.152344 C 189.980469 99.082031 189.960938 98.988281 189.980469 98.902344 L 190.222656 97.902344 C 189.375 97.84375 188.777344 97.539062 188.4375 96.996094 C 188.144531 96.523438 188.0625 95.90625 188.195312 95.136719 C 188.230469 94.917969 188.417969 94.757812 188.640625 94.757812 L 188.664062 94.757812 C 188.757812 94.757812 188.84375 94.800781 188.902344 94.867188 C 188.964844 94.9375 188.988281 95.03125 188.976562 95.121094 C 188.890625 95.699219 188.964844 96.164062 189.207031 96.519531 C 189.492188 96.945312 189.988281 97.15625 190.691406 97.15625 C 191.300781 97.15625 191.84375 96.972656 192.320312 96.609375 C 192.792969 96.242188 193.101562 95.769531 193.242188 95.183594 " fill-opacity="1" fill-rule="nonzero"/><path fill="#000000" d="M 201.667969 95.183594 C 201.796875 94.652344 201.75 94.214844 201.519531 93.875 C 201.292969 93.539062 200.824219 93.21875 200.113281 92.917969 C 199.226562 92.574219 198.640625 92.171875 198.363281 91.703125 C 198.085938 91.234375 198.039062 90.628906 198.21875 89.886719 C 198.410156 89.105469 198.78125 88.46875 199.328125 87.980469 C 199.878906 87.496094 200.53125 87.21875 201.289062 87.148438 L 201.578125 85.96875 C 201.617188 85.808594 201.757812 85.695312 201.921875 85.695312 L 201.933594 85.695312 C 202.023438 85.695312 202.105469 85.738281 202.160156 85.804688 C 202.214844 85.875 202.234375 85.96875 202.214844 86.054688 L 201.945312 87.148438 C 202.6875 87.226562 203.195312 87.542969 203.476562 88.097656 C 203.722656 88.585938 203.769531 89.226562 203.621094 90.023438 C 203.582031 90.21875 203.414062 90.359375 203.214844 90.359375 L 203.207031 90.359375 C 203.105469 90.359375 203.007812 90.316406 202.941406 90.238281 C 202.875 90.160156 202.84375 90.058594 202.859375 89.957031 C 202.945312 89.390625 202.886719 88.925781 202.691406 88.566406 C 202.445312 88.121094 202.023438 87.898438 201.417969 87.898438 C 200.804688 87.898438 200.285156 88.078125 199.855469 88.4375 C 199.425781 88.792969 199.136719 89.269531 198.992188 89.867188 C 198.851562 90.445312 198.898438 90.894531 199.136719 91.21875 C 199.371094 91.542969 199.828125 91.847656 200.515625 92.136719 C 201.203125 92.421875 201.683594 92.695312 201.960938 92.957031 C 202.238281 93.21875 202.421875 93.527344 202.503906 93.882812 C 202.585938 94.242188 202.566406 94.671875 202.445312 95.167969 C 202.253906 95.957031 201.878906 96.589844 201.320312 97.074219 C 200.761719 97.554688 200.089844 97.832031 199.300781 97.898438 L 199.03125 98.996094 C 198.996094 99.152344 198.851562 99.265625 198.691406 99.265625 C 198.601562 99.265625 198.515625 99.222656 198.457031 99.152344 C 198.402344 99.082031 198.382812 98.988281 198.402344 98.902344 L 198.648438 97.902344 C 197.796875 97.84375 197.203125 97.539062 196.863281 96.996094 C 196.566406 96.523438 196.484375 95.90625 196.617188 95.136719 C 196.65625 94.917969 196.84375 94.757812 197.0625 94.757812 L 197.089844 94.757812 C 197.179688 94.757812 197.265625 94.800781 197.328125 94.867188 C 197.386719 94.9375 197.410156 95.03125 197.398438 95.121094 C 197.3125 95.699219 197.390625 96.164062 197.628906 96.519531 C 197.917969 96.945312 198.410156 97.15625 199.113281 97.15625 C 199.726562 97.15625 200.265625 96.972656 200.742188 96.609375 C 201.214844 96.242188 201.523438 95.769531 201.667969 95.183594 " fill-opacity="1" fill-rule="nonzero"/><path fill="#000000" d="M 210.136719 95.183594 C 210.269531 94.652344 210.21875 94.214844 209.992188 93.875 C 209.765625 93.539062 209.296875 93.21875 208.585938 92.917969 C 207.695312 92.574219 207.113281 92.171875 206.835938 91.703125 C 206.558594 91.234375 206.507812 90.628906 206.691406 89.886719 C 206.882812 89.105469 207.25 88.46875 207.800781 87.980469 C 208.351562 87.496094 209.003906 87.21875 209.761719 87.148438 L 210.046875 85.96875 C 210.085938 85.808594 210.230469 85.695312 210.394531 85.695312 L 210.40625 85.695312 C 210.492188 85.695312 210.578125 85.738281 210.632812 85.804688 C 210.6875 85.875 210.707031 85.96875 210.683594 86.054688 L 210.417969 87.148438 C 211.15625 87.226562 211.667969 87.542969 211.945312 88.097656 C 212.195312 88.585938 212.242188 89.230469 212.089844 90.035156 C 212.054688 90.222656 211.886719 90.359375 211.695312 90.359375 L 211.664062 90.359375 C 211.566406 90.359375 211.46875 90.316406 211.40625 90.242188 C 211.339844 90.167969 211.3125 90.066406 211.328125 89.96875 C 211.414062 89.394531 211.359375 88.929688 211.160156 88.566406 C 210.917969 88.121094 210.492188 87.898438 209.886719 87.898438 C 209.277344 87.898438 208.753906 88.078125 208.328125 88.4375 C 207.894531 88.792969 207.609375 89.269531 207.464844 89.867188 C 207.324219 90.445312 207.371094 90.894531 207.605469 91.21875 C 207.839844 91.542969 208.300781 91.847656 208.984375 92.136719 C 209.671875 92.421875 210.152344 92.695312 210.433594 92.957031 C 210.710938 93.21875 210.890625 93.527344 210.972656 93.882812 C 211.058594 94.242188 211.039062 94.671875 210.917969 95.167969 C 210.722656 95.957031 210.347656 96.589844 209.789062 97.074219 C 209.230469 97.554688 208.558594 97.832031 207.769531 97.898438 L 207.503906 98.996094 C 207.464844 99.152344 207.324219 99.265625 207.160156 99.265625 C 207.070312 99.265625 206.984375 99.222656 206.929688 99.152344 C 206.875 99.082031 206.855469 98.988281 206.875 98.902344 L 207.117188 97.902344 C 206.269531 97.84375 205.671875 97.539062 205.332031 96.996094 C 205.039062 96.523438 204.957031 95.90625 205.089844 95.136719 C 205.125 94.917969 205.3125 94.757812 205.535156 94.757812 L 205.5625 94.757812 C 205.652344 94.757812 205.738281 94.800781 205.796875 94.867188 C 205.855469 94.9375 205.882812 95.03125 205.871094 95.121094 C 205.78125 95.699219 205.859375 96.164062 206.101562 96.519531 C 206.386719 96.945312 206.882812 97.15625 207.585938 97.15625 C 208.195312 97.15625 208.738281 96.972656 209.214844 96.609375 C 209.6875 96.242188 209.996094 95.769531 210.136719 95.183594 " fill-opacity="1" fill-rule="nonzero"/><path fill="#000000" d="M 184.355469 204.480469 L 136.621094 204.480469 L 172.007812 149.972656 C 173.113281 148.269531 175.039062 147.234375 177.109375 147.234375 L 215.851562 147.234375 C 218.3125 147.234375 219.804688 149.875 218.492188 151.898438 L 184.355469 204.480469 " fill-opacity="1" fill-rule="nonzero"/><path fill="#caddff" d="M 194.539062 166.351562 C 192.988281 168.738281 189.652344 170.675781 187.085938 170.675781 C 184.523438 170.675781 183.703125 168.738281 185.253906 166.351562 C 186.804688 163.960938 190.140625 162.023438 192.703125 162.023438 C 195.265625 162.023438 196.089844 163.960938 194.539062 166.351562 " fill-opacity="1" fill-rule="nonzero"/><path fill="#000000" d="M 180 209.03125 L 99.714844 209.03125 C 97.214844 209.03125 95.1875 207.003906 95.1875 204.5 L 95.1875 204.09375 L 184.527344 204.09375 L 184.527344 204.5 C 184.527344 207.003906 182.5 209.03125 180 209.03125 " fill-opacity="1" fill-rule="nonzero"/><path fill="#ffffff" d="M 181.871094 204.898438 L 140.878906 204.898438 C 140.675781 204.898438 140.511719 204.734375 140.511719 204.53125 C 140.511719 204.328125 140.675781 204.164062 140.878906 204.164062 L 181.871094 204.164062 C 182.074219 204.164062 182.238281 204.328125 182.238281 204.53125 C 182.238281 204.734375 182.074219 204.898438 181.871094 204.898438 " fill-opacity="1" fill-rule="nonzero"/><path fill="#5479f7" d="M 89.273438 150.21875 C 59.664062 174.761719 59.019531 175.046875 66.941406 189.300781 C 72.152344 198.6875 87.152344 212.867188 100.238281 208.464844 C 108.324219 205.746094 112.597656 193.050781 118.582031 152.894531 C 121.035156 136.40625 109.570312 136.488281 107.984375 135.289062 C 105.234375 133.207031 108.699219 134.117188 89.273438 150.21875 " fill-opacity="1" fill-rule="nonzero"/><path fill="#ffffff" d="M 84.484375 166.714844 C 84.457031 166.714844 84.425781 166.710938 84.394531 166.703125 C 84.199219 166.65625 84.082031 166.453125 84.128906 166.257812 C 87.386719 153.269531 99.082031 139.765625 99.199219 139.632812 C 99.332031 139.480469 99.566406 139.464844 99.714844 139.597656 C 99.867188 139.730469 99.882812 139.964844 99.75 140.117188 C 99.636719 140.25 88.054688 153.621094 84.839844 166.4375 C 84.796875 166.601562 84.648438 166.714844 84.484375 166.714844 " fill-opacity="1" fill-rule="nonzero"/><path fill="#ffffff" d="M 108.105469 201.800781 C 108.019531 201.800781 107.9375 201.769531 107.867188 201.710938 C 107.714844 201.582031 107.695312 201.347656 107.828125 201.195312 C 120.039062 186.988281 118.257812 148.132812 118.238281 147.742188 C 118.226562 147.539062 118.382812 147.367188 118.585938 147.359375 C 118.785156 147.347656 118.960938 147.503906 118.96875 147.707031 C 118.972656 147.804688 119.445312 157.671875 118.386719 169.179688 C 116.960938 184.675781 113.597656 195.605469 108.382812 201.671875 C 108.3125 201.757812 108.210938 201.800781 108.105469 201.800781 " fill-opacity="1" fill-rule="nonzero"/><path fill="#ffffff" d="M 85.179688 164.324219 C 85.058594 164.324219 84.9375 164.265625 84.871094 164.15625 C 81.628906 159.023438 83.125 155.269531 83.1875 155.109375 C 83.265625 154.921875 83.480469 154.835938 83.667969 154.914062 C 83.855469 154.988281 83.941406 155.203125 83.867188 155.390625 C 83.851562 155.425781 82.460938 158.972656 85.488281 163.761719 C 85.597656 163.933594 85.546875 164.160156 85.375 164.269531 C 85.3125 164.308594 85.246094 164.324219 85.179688 164.324219 " fill-opacity="1" fill-rule="nonzero"/><path fill="#ffffff" d="M 79.085938 203.296875 C 79 203.296875 78.917969 203.269531 78.851562 203.210938 C 64.597656 191.332031 62.925781 182.109375 62.859375 181.722656 C 62.828125 181.523438 62.960938 181.335938 63.160156 181.300781 C 63.359375 181.265625 63.550781 181.402344 63.582031 181.601562 C 63.597656 181.695312 65.304688 190.96875 79.320312 202.648438 C 79.472656 202.777344 79.496094 203.007812 79.367188 203.164062 C 79.292969 203.25 79.1875 203.296875 79.085938 203.296875 " fill-opacity="1" fill-rule="nonzero"/><path fill="#ffffff" d="M 108.457031 91.953125 L 101.125 115.777344 C 101.125 115.777344 83.289062 118.65625 74.964844 124.910156 C 74.964844 124.910156 88.921875 119.441406 97.394531 125.300781 C 105.867188 131.160156 126.746094 133.445312 138.949219 125.851562 C 138.949219 125.851562 122.460938 118.511719 122.332031 118.050781 C 122.117188 117.277344 123.007812 115.097656 123.007812 115.097656 C 123.007812 115.097656 124.984375 116.320312 127.632812 117.019531 C 129.613281 117.546875 131.222656 116.121094 132.097656 114.257812 C 134.09375 110.007812 135.414062 104.386719 135.414062 104.386719 L 138.535156 103.605469 C 138.152344 98.96875 137.0625 96.710938 137.914062 92.457031 C 138.609375 88.960938 141.25 88.324219 141.25 80.035156 L 118.574219 71.722656 L 108.460938 82.238281 C 108.460938 82.238281 107.441406 80.332031 104.902344 81.144531 C 102.359375 81.960938 101.949219 93.105469 104.714844 93.621094 C 106.617188 93.976562 108.457031 91.953125 108.457031 91.953125 " fill-opacity="1" fill-rule="nonzero"/><path fill="#000000" d="M 87.316406 122.203125 C 90.847656 122.203125 94.550781 122.890625 97.601562 125 C 105.492188 130.453125 125.769531 133.125 138.15625 125.898438 C 136.835938 125.308594 133.675781 123.890625 130.535156 122.457031 C 122.105469 118.601562 122.046875 118.390625 121.980469 118.148438 C 121.746094 117.300781 122.511719 115.34375 122.667969 114.960938 C 122.707031 114.859375 122.789062 114.785156 122.890625 114.75 C 122.996094 114.71875 123.109375 114.730469 123.199219 114.789062 C 123.21875 114.796875 125.164062 115.988281 127.726562 116.667969 C 130.0625 117.289062 131.410156 114.859375 131.765625 114.101562 C 133.722656 109.9375 135.042969 104.359375 135.058594 104.300781 C 135.089844 104.167969 135.191406 104.0625 135.324219 104.03125 L 138.144531 103.328125 C 138.019531 101.976562 137.839844 100.851562 137.667969 99.757812 C 137.292969 97.378906 136.964844 95.324219 137.550781 92.386719 C 137.800781 91.144531 138.285156 90.246094 138.792969 89.296875 C 139.757812 87.503906 140.847656 85.480469 140.878906 80.292969 L 118.671875 72.152344 L 108.722656 82.492188 C 108.644531 82.574219 108.527344 82.617188 108.410156 82.601562 C 108.296875 82.585938 108.191406 82.515625 108.136719 82.410156 C 108.101562 82.34375 107.21875 80.789062 105.011719 81.496094 C 103.863281 81.863281 102.988281 85.566406 103.210938 89.117188 C 103.359375 91.484375 103.976562 93.109375 104.78125 93.261719 C 106.460938 93.570312 108.167969 91.722656 108.183594 91.703125 C 108.300781 91.578125 108.488281 91.546875 108.636719 91.632812 C 108.785156 91.71875 108.855469 91.894531 108.804688 92.058594 L 101.476562 115.882812 C 101.433594 116.015625 101.320312 116.117188 101.183594 116.136719 C 101.023438 116.164062 86.238281 118.597656 77.472656 123.699219 C 79.824219 123.023438 83.464844 122.203125 87.316406 122.203125 Z M 119.242188 131.042969 C 118.421875 131.042969 117.59375 131.023438 116.757812 130.988281 C 108.976562 130.632812 101.480469 128.570312 97.1875 125.605469 C 88.96875 119.921875 75.234375 125.195312 75.097656 125.25 C 74.925781 125.316406 74.734375 125.246094 74.644531 125.085938 C 74.554688 124.925781 74.597656 124.726562 74.746094 124.613281 C 82.535156 118.761719 98.738281 115.816406 100.84375 115.453125 L 107.726562 93.070312 C 106.957031 93.625 105.828125 94.199219 104.648438 93.980469 C 102.945312 93.664062 102.566406 90.503906 102.480469 89.160156 C 102.289062 86.148438 102.890625 81.40625 104.789062 80.796875 C 106.816406 80.144531 107.996094 81.09375 108.496094 81.671875 L 118.308594 71.46875 C 118.410156 71.363281 118.5625 71.328125 118.699219 71.378906 L 141.375 79.691406 C 141.519531 79.746094 141.613281 79.882812 141.613281 80.035156 C 141.613281 85.597656 140.40625 87.839844 139.4375 89.644531 C 138.933594 90.582031 138.5 91.394531 138.269531 92.527344 C 137.710938 95.339844 138.011719 97.238281 138.390625 99.640625 C 138.570312 100.777344 138.773438 102.058594 138.902344 103.578125 C 138.914062 103.753906 138.800781 103.917969 138.625 103.964844 L 135.71875 104.6875 C 135.449219 105.769531 134.195312 110.648438 132.429688 114.410156 C 131.332031 116.75 129.457031 117.882812 127.539062 117.375 C 125.519531 116.839844 123.898438 116.019531 123.195312 115.632812 C 122.90625 116.417969 122.621094 117.417969 122.671875 117.863281 C 123.664062 118.554688 132.945312 122.777344 139.097656 125.515625 C 139.21875 125.570312 139.304688 125.6875 139.3125 125.824219 C 139.320312 125.960938 139.257812 126.089844 139.140625 126.160156 C 134.039062 129.339844 127.042969 131.042969 119.242188 131.042969 " fill-opacity="1" fill-rule="nonzero"/><path fill="#000000" d="M 108.324219 82.582031 C 108.324219 82.582031 110.171875 83.078125 110.109375 86.132812 C 110.046875 89.1875 109.914062 93.847656 113.007812 95.746094 C 116.101562 97.644531 117.996094 89.296875 117.996094 86.832031 C 117.996094 84.363281 120.453125 77.667969 125.222656 78.265625 C 130.484375 78.925781 133.183594 82.667969 141.25 81.890625 C 142.464844 81.769531 146.898438 81.34375 148.175781 78.496094 C 149.074219 76.496094 147.992188 74.222656 147.523438 73.277344 C 146.773438 71.753906 144.371094 67.851562 132.535156 64.269531 C 124.125 61.722656 119.917969 60.449219 116.480469 62.039062 C 110.683594 64.71875 107.5625 73.019531 108.324219 82.582031 " fill-opacity="1" fill-rule="nonzero"/><path fill="#ffffff" d="M 123.007812 115.097656 L 116.988281 111.445312 C 115.769531 110.703125 114.878906 109.53125 114.492188 108.15625 L 113.390625 104.222656 L 123.007812 115.097656 " fill-opacity="1" fill-rule="nonzero"/><path fill="#000000" d="M 123.007812 115.464844 C 122.941406 115.464844 122.875 115.449219 122.816406 115.414062 L 116.800781 111.757812 C 115.496094 110.96875 114.554688 109.722656 114.140625 108.257812 L 113.035156 104.320312 C 112.984375 104.128906 113.09375 103.925781 113.289062 103.871094 C 113.484375 103.816406 113.6875 103.929688 113.742188 104.125 L 114.847656 108.058594 C 115.207031 109.347656 116.035156 110.4375 117.179688 111.132812 L 123.195312 114.785156 C 123.371094 114.890625 123.425781 115.117188 123.320312 115.289062 C 123.25 115.402344 123.128906 115.464844 123.007812 115.464844 " fill-opacity="1" fill-rule="nonzero"/><path fill="#ffffff" d="M 116.167969 116.292969 C 116.6875 114.582031 115.703125 113.140625 114.578125 111.707031 L 110.726562 104.875 C 109.34375 103.109375 109.066406 100.640625 110.027344 98.609375 C 110.027344 98.609375 113.273438 89.59375 115.367188 86.828125 C 115.753906 86.316406 116.167969 85.929688 116.679688 86.132812 C 117.207031 86.339844 117.476562 87.304688 117.355469 88.355469 C 117.164062 90.019531 113.390625 98.488281 113.390625 98.488281 C 113.390625 98.488281 117.117188 91.464844 118.078125 89.726562 C 118.71875 88.574219 119.285156 88.339844 119.492188 88.429688 C 120.613281 88.917969 119.492188 92.320312 119.066406 93.558594 C 118.621094 94.859375 117.621094 98.277344 117.175781 99.8125 C 117.121094 99.996094 120.613281 92.085938 121.265625 92.257812 C 122.257812 92.515625 120.519531 98.6875 119.75 101.199219 C 118.941406 103.84375 122.964844 110.351562 124.179688 113.078125 C 125.394531 115.800781 122.933594 122.300781 122.933594 122.300781 L 118.238281 146.386719 L 101.265625 138.597656 C 101.265625 138.597656 115.550781 118.3125 116.167969 116.292969 " fill-opacity="1" fill-rule="nonzero"/><path fill="#000000" d="M 101.820312 138.449219 L 117.96875 145.859375 L 122.574219 122.230469 C 122.578125 122.207031 122.582031 122.1875 122.589844 122.167969 C 122.617188 122.105469 124.984375 115.78125 123.847656 113.226562 C 123.570312 112.609375 123.148438 111.792969 122.660156 110.855469 C 121.003906 107.652344 118.730469 103.269531 119.402344 101.09375 C 120.789062 96.5625 121.328125 93.574219 121.183594 92.761719 C 120.8125 93.21875 119.917969 94.742188 117.761719 99.429688 C 117.429688 100.148438 117.371094 100.277344 117.046875 100.160156 C 116.867188 100.089844 116.769531 99.894531 116.824219 99.710938 C 117.242188 98.265625 118.269531 94.761719 118.722656 93.441406 C 120.039062 89.589844 119.558594 88.902344 119.375 88.785156 C 119.246094 88.816406 118.867188 89.0625 118.398438 89.90625 C 117.449219 91.621094 113.75 98.589844 113.714844 98.660156 C 113.621094 98.835938 113.40625 98.90625 113.230469 98.820312 C 113.050781 98.730469 112.976562 98.519531 113.054688 98.339844 C 114.097656 96 116.839844 89.628906 116.992188 88.3125 C 117.101562 87.359375 116.851562 86.59375 116.546875 86.472656 C 116.367188 86.402344 116.132812 86.421875 115.660156 87.050781 C 113.621094 89.738281 110.40625 98.644531 110.375 98.734375 C 110.371094 98.746094 110.367188 98.753906 110.359375 98.765625 C 109.457031 100.679688 109.710938 102.988281 111.015625 104.644531 C 111.023438 104.660156 111.035156 104.675781 111.046875 104.691406 L 114.882812 111.503906 C 116.070312 113.019531 117.085938 114.539062 116.519531 116.398438 C 115.929688 118.324219 103.800781 135.625 101.820312 138.449219 Z M 118.238281 146.753906 C 118.1875 146.753906 118.136719 146.742188 118.085938 146.71875 L 101.113281 138.929688 C 101.015625 138.886719 100.941406 138.796875 100.914062 138.691406 C 100.882812 138.585938 100.902344 138.476562 100.964844 138.386719 C 104.929688 132.757812 115.328125 117.796875 115.816406 116.1875 C 116.285156 114.652344 115.402344 113.351562 114.289062 111.933594 C 114.277344 111.921875 114.265625 111.90625 114.257812 111.890625 L 110.421875 105.078125 C 108.96875 103.207031 108.679688 100.621094 109.691406 98.46875 C 109.890625 97.910156 112.996094 89.351562 115.078125 86.605469 C 115.335938 86.261719 115.949219 85.449219 116.816406 85.789062 C 117.496094 86.054688 117.867188 87.128906 117.722656 88.394531 C 117.660156 88.917969 117.277344 90.046875 116.769531 91.375 C 117.191406 90.59375 117.542969 89.9375 117.757812 89.550781 C 118.507812 88.199219 119.21875 87.914062 119.640625 88.09375 C 120.640625 88.53125 120.570312 90.304688 119.414062 93.679688 C 119.277344 94.082031 119.085938 94.691406 118.871094 95.382812 C 120.691406 91.726562 121.019531 91.8125 121.359375 91.902344 C 121.476562 91.933594 121.644531 92.015625 121.765625 92.230469 C 122.394531 93.359375 120.992188 98.402344 120.101562 101.308594 C 119.519531 103.199219 121.800781 107.601562 123.3125 110.515625 C 123.804688 111.46875 124.230469 112.289062 124.515625 112.925781 C 125.75 115.6875 123.492188 121.855469 123.289062 122.398438 L 118.597656 146.457031 C 118.578125 146.566406 118.507812 146.660156 118.40625 146.710938 C 118.351562 146.738281 118.296875 146.753906 118.238281 146.753906 " fill-opacity="1" fill-rule="nonzero"/><path fill="#000000" d="M 64.542969 220.425781 C 64.511719 220.425781 64.480469 220.417969 64.445312 220.410156 C 62.089844 219.769531 60.929688 218.222656 60.375 217.039062 C 59.695312 215.601562 59.566406 213.910156 60.046875 212.835938 C 62.558594 207.246094 73.296875 209.117188 89.554688 211.953125 C 101.179688 213.980469 115.652344 216.503906 131.589844 217.027344 C 149.996094 217.632812 169.171875 218.148438 184.746094 217.820312 C 208.070312 217.328125 213.402344 215.078125 213.769531 213.273438 C 214.035156 211.960938 213.210938 210.660156 211.441406 209.609375 C 200.9375 203.347656 183.15625 206.214844 177.753906 207.710938 C 177.558594 207.765625 177.359375 207.652344 177.304688 207.457031 C 177.25 207.261719 177.363281 207.058594 177.558594 207.003906 C 183.433594 205.375 201.039062 202.554688 211.816406 208.976562 C 213.871094 210.203125 214.820312 211.777344 214.488281 213.421875 C 213.300781 219.25 180.480469 219.371094 131.566406 217.761719 C 115.574219 217.234375 101.078125 214.707031 89.429688 212.675781 C 74.082031 210 62.996094 208.066406 60.714844 213.136719 C 60.394531 213.855469 60.355469 215.285156 61.035156 216.726562 C 61.527344 217.769531 62.550781 219.132812 64.640625 219.703125 C 64.835938 219.757812 64.949219 219.957031 64.894531 220.152344 C 64.851562 220.316406 64.703125 220.425781 64.542969 220.425781 " fill-opacity="1" fill-rule="nonzero"/><path fill="#000000" d="M 81.128906 50.429688 C 81.015625 50.429688 80.902344 50.378906 80.832031 50.28125 C 80.710938 50.117188 80.746094 49.886719 80.910156 49.769531 L 81.054688 49.660156 C 86.28125 45.808594 98.519531 36.785156 115.863281 32.804688 C 116.0625 32.761719 116.257812 32.886719 116.300781 33.082031 C 116.347656 33.277344 116.222656 33.476562 116.027344 33.519531 C 98.832031 37.464844 86.679688 46.425781 81.492188 50.25 L 81.34375 50.359375 C 81.277344 50.40625 81.203125 50.429688 81.128906 50.429688 " fill-opacity="1" fill-rule="nonzero"/><path fill="#000000" d="M 87.515625 41.1875 C 87.390625 41.1875 87.269531 41.125 87.199219 41.007812 C 87.097656 40.835938 87.15625 40.609375 87.332031 40.507812 C 87.695312 40.292969 87.964844 39.78125 88.25 39.238281 C 88.597656 38.574219 88.960938 37.882812 89.597656 37.53125 C 90.171875 37.21875 90.90625 37.277344 91.613281 37.335938 C 92.238281 37.382812 92.882812 37.4375 93.320312 37.210938 C 93.707031 37.011719 94.007812 36.507812 94.324219 35.972656 C 94.707031 35.335938 95.101562 34.675781 95.742188 34.367188 C 96.34375 34.078125 97.078125 34.179688 97.785156 34.273438 C 98.402344 34.359375 99.035156 34.445312 99.476562 34.246094 C 99.878906 34.066406 100.210938 33.574219 100.558594 33.054688 C 100.972656 32.441406 101.398438 31.808594 102.050781 31.539062 C 102.667969 31.277344 103.398438 31.417969 104.105469 31.554688 C 104.714844 31.667969 105.339844 31.789062 105.785156 31.617188 C 106.203125 31.457031 106.558594 30.984375 106.9375 30.480469 C 107.382812 29.894531 107.839844 29.285156 108.5 29.050781 C 109.136719 28.828125 109.863281 29.007812 110.5625 29.179688 C 111.15625 29.328125 111.777344 29.484375 112.226562 29.339844 C 112.652344 29.199219 113.039062 28.746094 113.445312 28.265625 C 113.917969 27.703125 114.410156 27.121094 115.082031 26.925781 C 115.734375 26.738281 116.445312 26.957031 117.136719 27.171875 C 117.722656 27.355469 118.328125 27.542969 118.785156 27.425781 C 119.21875 27.308594 119.632812 26.878906 120.066406 26.421875 C 120.574219 25.890625 121.09375 25.339844 121.777344 25.183594 C 122.4375 25.03125 123.140625 25.292969 123.816406 25.546875 C 124.390625 25.765625 124.984375 25.988281 125.445312 25.894531 C 125.644531 25.855469 125.835938 25.988281 125.875 26.183594 C 125.914062 26.382812 125.785156 26.578125 125.585938 26.617188 C 124.921875 26.746094 124.230469 26.488281 123.558594 26.234375 C 122.957031 26.007812 122.386719 25.792969 121.9375 25.898438 C 121.472656 26.003906 121.027344 26.472656 120.597656 26.925781 C 120.109375 27.4375 119.605469 27.96875 118.96875 28.132812 C 118.3125 28.304688 117.605469 28.085938 116.917969 27.871094 C 116.304688 27.683594 115.726562 27.503906 115.285156 27.628906 C 114.828125 27.765625 114.410156 28.261719 114.003906 28.738281 C 113.546875 29.277344 113.078125 29.832031 112.449219 30.035156 C 111.800781 30.246094 111.082031 30.066406 110.382812 29.890625 C 109.761719 29.738281 109.175781 29.589844 108.746094 29.742188 C 108.292969 29.902344 107.902344 30.421875 107.523438 30.925781 C 107.097656 31.484375 106.660156 32.066406 106.046875 32.304688 C 105.40625 32.550781 104.675781 32.410156 103.96875 32.273438 C 103.339844 32.152344 102.75 32.039062 102.332031 32.214844 C 101.882812 32.398438 101.519531 32.941406 101.167969 33.464844 C 100.777344 34.046875 100.371094 34.648438 99.777344 34.914062 C 99.144531 35.199219 98.40625 35.097656 97.6875 35 C 97.058594 34.914062 96.460938 34.835938 96.0625 35.027344 C 95.617188 35.242188 95.28125 35.804688 94.953125 36.351562 C 94.597656 36.949219 94.226562 37.570312 93.652344 37.863281 C 93.03125 38.183594 92.28125 38.125 91.554688 38.066406 C 90.925781 38.011719 90.332031 37.964844 89.949219 38.175781 C 89.507812 38.421875 89.195312 39.011719 88.898438 39.578125 C 88.578125 40.1875 88.246094 40.820312 87.703125 41.140625 C 87.644531 41.171875 87.578125 41.1875 87.515625 41.1875 " fill-opacity="1" fill-rule="nonzero"/><path fill="#000000" d="M 45.726562 143.609375 C 45.59375 143.609375 45.464844 143.535156 45.398438 143.40625 C 39.894531 132.449219 37.101562 120.707031 37.101562 108.496094 C 37.101562 106.382812 37.1875 104.25 37.359375 102.152344 C 37.375 101.953125 37.554688 101.800781 37.753906 101.816406 C 37.957031 101.835938 38.105469 102.011719 38.089844 102.214844 C 37.921875 104.289062 37.835938 106.40625 37.835938 108.496094 C 37.835938 120.589844 40.601562 132.222656 46.054688 143.078125 C 46.144531 143.257812 46.070312 143.480469 45.890625 143.570312 C 45.835938 143.597656 45.78125 143.609375 45.726562 143.609375 " fill-opacity="1" fill-rule="nonzero"/><path fill="#000000" d="M 44.394531 132.515625 C 44.238281 132.515625 44.09375 132.417969 44.046875 132.261719 C 41.773438 125.046875 40.621094 117.539062 40.621094 109.941406 C 40.621094 107.917969 40.703125 105.871094 40.867188 103.863281 C 40.882812 103.660156 41.058594 103.511719 41.261719 103.527344 C 41.464844 103.542969 41.613281 103.71875 41.597656 103.921875 C 41.433594 105.910156 41.351562 107.9375 41.351562 109.941406 C 41.351562 117.460938 42.492188 124.898438 44.742188 132.039062 C 44.804688 132.230469 44.699219 132.4375 44.503906 132.5 C 44.46875 132.511719 44.429688 132.515625 44.394531 132.515625 " fill-opacity="1" fill-rule="nonzero"/><path fill="#000000" d="M 47.394531 107.933594 Z M 45.722656 106.339844 C 45.449219 106.339844 45.179688 106.425781 44.953125 106.589844 C 44.664062 106.796875 44.476562 107.105469 44.421875 107.453125 C 44.304688 108.175781 44.792969 108.855469 45.515625 108.972656 C 45.863281 109.027344 46.214844 108.945312 46.5 108.738281 C 46.785156 108.53125 46.976562 108.226562 47.03125 107.875 C 47.148438 107.15625 46.65625 106.472656 45.9375 106.355469 C 45.867188 106.347656 45.792969 106.339844 45.722656 106.339844 Z M 45.730469 109.722656 C 45.621094 109.722656 45.507812 109.714844 45.398438 109.695312 C 44.277344 109.515625 43.515625 108.457031 43.695312 107.335938 C 43.785156 106.792969 44.078125 106.316406 44.523438 105.996094 C 44.96875 105.675781 45.511719 105.546875 46.054688 105.632812 C 47.171875 105.8125 47.9375 106.875 47.753906 107.992188 C 47.667969 108.535156 47.375 109.011719 46.929688 109.335938 C 46.574219 109.589844 46.15625 109.722656 45.730469 109.722656 " fill-opacity="1" fill-rule="nonzero"/><path fill="#ffffff" d="M 58.566406 62.609375 C 73.644531 61.851562 86.449219 68.976562 86.726562 78.542969 C 86.832031 82.054688 86.566406 83.691406 83.097656 87.988281 L 87.71875 100.367188 L 75.636719 93.859375 C 71.242188 95.902344 64.75 96.996094 60.28125 97.21875 C 45.203125 97.976562 32.59375 90.84375 32.121094 81.285156 C 31.644531 71.726562 43.484375 63.367188 58.566406 62.609375 " fill-opacity="1" fill-rule="nonzero"/><path fill="#000000" d="M 46.914062 63.683594 C 46.769531 63.683594 46.636719 63.601562 46.578125 63.457031 C 46.496094 63.273438 46.585938 63.058594 46.769531 62.980469 C 47.125 62.832031 47.488281 62.683594 47.851562 62.542969 C 48.042969 62.472656 48.253906 62.566406 48.328125 62.753906 C 48.398438 62.945312 48.304688 63.15625 48.117188 63.226562 C 47.757812 63.367188 47.402344 63.507812 47.054688 63.65625 C 47.007812 63.675781 46.960938 63.683594 46.914062 63.683594 " fill-opacity="1" fill-rule="nonzero"/><path fill="#000000" d="M 59.894531 95.378906 C 53.351562 95.378906 47.195312 93.914062 42.359375 91.175781 C 36.925781 88.101562 33.804688 83.792969 33.570312 79.042969 C 33.292969 73.46875 37.015625 68.140625 43.785156 64.421875 C 43.960938 64.324219 44.183594 64.390625 44.28125 64.566406 C 44.378906 64.742188 44.316406 64.964844 44.136719 65.0625 C 37.625 68.640625 34.039062 73.722656 34.300781 79.003906 C 34.523438 83.496094 37.511719 87.59375 42.71875 90.539062 C 47.980469 93.515625 54.855469 94.953125 62.078125 94.589844 C 63.191406 94.535156 64.308594 94.4375 65.402344 94.292969 C 65.605469 94.269531 65.785156 94.410156 65.8125 94.613281 C 65.839844 94.8125 65.695312 94.996094 65.496094 95.023438 C 64.382812 95.164062 63.246094 95.265625 62.117188 95.324219 C 61.371094 95.359375 60.628906 95.378906 59.894531 95.378906 " fill-opacity="1" fill-rule="nonzero"/><path fill="#000000" d="M 89.523438 98.339844 C 89.464844 98.339844 89.40625 98.324219 89.351562 98.292969 L 77.417969 91.867188 C 76.101562 92.347656 72.183594 93.617188 71.039062 93.925781 C 70.84375 93.980469 70.640625 93.863281 70.589844 93.667969 C 70.535156 93.472656 70.652344 93.273438 70.847656 93.21875 C 72.03125 92.898438 76.203125 91.546875 77.3125 91.121094 C 77.414062 91.085938 77.523438 91.09375 77.617188 91.140625 L 88.816406 97.171875 L 84.375 85.945312 C 84.320312 85.816406 84.347656 85.671875 84.441406 85.566406 C 87.472656 82.152344 88.382812 80.425781 88.175781 76.296875 C 87.953125 71.804688 84.964844 67.710938 79.757812 64.765625 C 74.5 61.789062 67.625 60.351562 60.398438 60.710938 C 58.695312 60.796875 56.996094 60.984375 55.347656 61.265625 C 55.148438 61.300781 54.957031 61.164062 54.925781 60.964844 C 54.890625 60.765625 55.023438 60.578125 55.222656 60.542969 C 56.902344 60.257812 58.628906 60.066406 60.363281 59.980469 C 67.722656 59.609375 74.742188 61.082031 80.121094 64.125 C 85.550781 67.199219 88.671875 71.507812 88.910156 76.261719 C 89.121094 80.542969 88.152344 82.460938 85.136719 85.882812 L 89.863281 97.835938 C 89.921875 97.980469 89.882812 98.144531 89.769531 98.246094 C 89.699219 98.308594 89.613281 98.339844 89.523438 98.339844 " fill-opacity="1" fill-rule="nonzero"/><path fill="#000000" d="M 63.960938 75.773438 C 63.761719 75.773438 63.597656 75.609375 63.59375 75.40625 L 63.554688 71.019531 C 63.550781 70.816406 63.714844 70.652344 63.914062 70.648438 C 63.917969 70.648438 63.917969 70.648438 63.917969 70.648438 C 64.121094 70.648438 64.285156 70.8125 64.285156 71.011719 L 64.328125 75.402344 C 64.328125 75.605469 64.167969 75.769531 63.964844 75.773438 C 63.964844 75.773438 63.960938 75.773438 63.960938 75.773438 " fill-opacity="1" fill-rule="nonzero"/><path fill="#000000" d="M 56.550781 75.839844 C 56.351562 75.839844 56.1875 75.679688 56.1875 75.476562 L 56.144531 71.089844 C 56.144531 70.886719 56.304688 70.71875 56.507812 70.71875 C 56.507812 70.71875 56.511719 70.71875 56.511719 70.71875 C 56.710938 70.71875 56.875 70.878906 56.878906 71.082031 L 56.917969 75.472656 C 56.921875 75.671875 56.757812 75.839844 56.554688 75.839844 C 56.554688 75.839844 56.554688 75.839844 56.550781 75.839844 " fill-opacity="1" fill-rule="nonzero"/><path fill="#000000" d="M 52.890625 84.652344 C 52.789062 84.652344 52.6875 84.613281 52.617188 84.527344 C 52.484375 84.375 52.5 84.144531 52.652344 84.011719 C 57.070312 80.15625 63.53125 80.097656 68.023438 83.867188 C 68.175781 83.996094 68.199219 84.230469 68.066406 84.382812 C 67.9375 84.539062 67.707031 84.558594 67.550781 84.429688 C 63.339844 80.890625 57.277344 80.945312 53.132812 84.566406 C 53.0625 84.625 52.976562 84.652344 52.890625 84.652344 " fill-opacity="1" fill-rule="nonzero"/><path fill="#99b9ff" d="M 157.054688 55.71875 L 136.828125 55.71875 L 136.828125 49.777344 C 136.828125 47.917969 138.328125 46.410156 140.183594 46.410156 L 153.460938 46.410156 C 155.445312 46.410156 157.054688 48.023438 157.054688 50.007812 L 157.054688 55.71875 " fill-opacity="1" fill-rule="nonzero"/><path fill="#99b9ff" d="M 153.820312 49.390625 L 139.875 49.390625 L 139.875 39.84375 C 139.875 36.414062 142.652344 33.632812 146.078125 33.632812 L 147.382812 33.632812 C 150.9375 33.632812 153.820312 36.519531 153.820312 40.078125 L 153.820312 49.390625 " fill-opacity="1" fill-rule="nonzero"/><g clip-path="url(#04e2a5e824)"><path fill="#99b9ff" d="M 147.105469 17.640625 L 147.078125 37.136719 L 145.972656 37.136719 L 145.96875 17.667969 C 146.34375 17.65625 146.722656 17.648438 147.09375 17.640625 L 147.105469 17.640625 " fill-opacity="1" fill-rule="nonzero"/></g><path fill="#5479f7" d="M 175.804688 73.761719 L 166.964844 73.761719 L 166.964844 41.800781 L 175.804688 41.800781 L 175.804688 73.761719 " fill-opacity="1" fill-rule="nonzero"/><path fill="#99b9ff" d="M 173.890625 48.199219 C 173.890625 49.570312 172.78125 50.683594 171.414062 50.683594 C 170.042969 50.683594 168.933594 49.570312 168.933594 48.199219 C 168.933594 46.828125 170.042969 45.714844 171.414062 45.714844 C 172.78125 45.714844 173.890625 46.828125 173.890625 48.199219 " fill-opacity="1" fill-rule="nonzero"/><path fill="#5479f7" d="M 185.585938 73.597656 L 176.746094 73.597656 L 176.746094 41.640625 L 185.585938 41.640625 L 185.585938 73.597656 " fill-opacity="1" fill-rule="nonzero"/><path fill="#99b9ff" d="M 183.675781 48.039062 C 183.675781 49.410156 182.5625 50.519531 181.195312 50.519531 C 179.824219 50.519531 178.714844 49.410156 178.714844 48.039062 C 178.714844 46.664062 179.824219 45.554688 181.195312 45.554688 C 182.5625 45.554688 183.675781 46.664062 183.675781 48.039062 " fill-opacity="1" fill-rule="nonzero"/><path fill="#5479f7" d="M 195.53125 73.597656 L 186.691406 73.597656 L 186.691406 41.640625 L 195.53125 41.640625 L 195.53125 73.597656 " fill-opacity="1" fill-rule="nonzero"/><path fill="#99b9ff" d="M 193.617188 48.039062 C 193.617188 49.410156 192.507812 50.519531 191.136719 50.519531 C 189.769531 50.519531 188.660156 49.410156 188.660156 48.039062 C 188.660156 46.664062 189.769531 45.554688 191.136719 45.554688 C 192.507812 45.554688 193.617188 46.664062 193.617188 48.039062 " fill-opacity="1" fill-rule="nonzero"/><path fill="#5479f7" d="M 205.3125 73.515625 L 196.472656 73.515625 L 196.472656 41.558594 L 205.3125 41.558594 L 205.3125 73.515625 " fill-opacity="1" fill-rule="nonzero"/><path fill="#99b9ff" d="M 203.398438 47.957031 C 203.398438 49.328125 202.289062 50.441406 200.921875 50.441406 C 199.550781 50.441406 198.441406 49.328125 198.441406 47.957031 C 198.441406 46.585938 199.550781 45.472656 200.921875 45.472656 C 202.289062 45.472656 203.398438 46.585938 203.398438 47.957031 " fill-opacity="1" fill-rule="nonzero"/><path fill="#5479f7" d="M 215.257812 73.515625 L 206.417969 73.515625 L 206.417969 41.558594 L 215.257812 41.558594 L 215.257812 73.515625 " fill-opacity="1" fill-rule="nonzero"/><path fill="#99b9ff" d="M 213.34375 47.957031 C 213.34375 49.328125 212.234375 50.441406 210.863281 50.441406 C 209.496094 50.441406 208.382812 49.328125 208.382812 47.957031 C 208.382812 46.585938 209.496094 45.472656 210.863281 45.472656 C 212.234375 45.472656 213.34375 46.585938 213.34375 47.957031 " fill-opacity="1" fill-rule="nonzero"/><path fill="#99b9ff" d="M 220.261719 75.21875 L 161.941406 75.21875 L 161.941406 72.484375 L 220.261719 72.484375 L 220.261719 75.21875 " fill-opacity="1" fill-rule="nonzero"/><path fill="#99b9ff" d="M 220.261719 75.21875 L 161.941406 75.21875 L 161.941406 72.484375 L 220.261719 72.484375 L 220.261719 75.21875 " fill-opacity="1" fill-rule="nonzero"/><path fill="#5479f7" d="M 162.308594 74.851562 L 219.894531 74.851562 L 219.894531 72.851562 L 162.308594 72.851562 Z M 220.628906 75.585938 L 161.578125 75.585938 L 161.578125 72.121094 L 220.628906 72.121094 L 220.628906 75.585938 " fill-opacity="1" fill-rule="nonzero"/><path fill="#000000" d="M 218.734375 102.507812 C 218.667969 102.507812 218.605469 102.492188 218.546875 102.457031 C 218.371094 102.355469 218.316406 102.128906 218.417969 101.953125 L 228.863281 84.289062 C 228.964844 84.113281 229.1875 84.054688 229.363281 84.160156 C 229.535156 84.261719 229.59375 84.488281 229.492188 84.660156 L 219.050781 102.328125 C 218.980469 102.445312 218.859375 102.507812 218.734375 102.507812 " fill-opacity="1" fill-rule="nonzero"/><path fill="#000000" d="M 222.25 102.507812 C 222.167969 102.507812 222.085938 102.480469 222.015625 102.421875 C 221.859375 102.292969 221.839844 102.0625 221.96875 101.90625 L 230.050781 92.175781 C 230.179688 92.019531 230.410156 91.996094 230.566406 92.128906 C 230.71875 92.257812 230.742188 92.488281 230.613281 92.644531 L 222.53125 102.375 C 222.460938 102.464844 222.355469 102.507812 222.25 102.507812 " fill-opacity="1" fill-rule="nonzero"/><path fill="#000000" d="M 215.855469 102.507812 C 215.824219 102.507812 215.792969 102.503906 215.761719 102.496094 C 215.566406 102.445312 215.449219 102.246094 215.5 102.050781 L 217.089844 95.933594 C 217.140625 95.734375 217.339844 95.617188 217.539062 95.667969 C 217.734375 95.71875 217.851562 95.921875 217.800781 96.117188 L 216.210938 102.234375 C 216.167969 102.398438 216.019531 102.507812 215.855469 102.507812 " fill-opacity="1" fill-rule="nonzero"/><path fill="#000000" d="M 174.988281 107.433594 C 174.875 107.433594 174.761719 107.378906 174.691406 107.277344 L 164.605469 92.980469 C 164.488281 92.8125 164.527344 92.585938 164.691406 92.46875 C 164.859375 92.351562 165.085938 92.390625 165.203125 92.558594 L 175.289062 106.851562 C 175.40625 107.019531 175.363281 107.25 175.199219 107.367188 C 175.136719 107.410156 175.0625 107.433594 174.988281 107.433594 " fill-opacity="1" fill-rule="nonzero"/><path fill="#000000" d="M 177.769531 105.484375 C 177.625 105.484375 177.488281 105.394531 177.429688 105.253906 L 172.898438 93.886719 C 172.820312 93.699219 172.914062 93.484375 173.101562 93.410156 C 173.289062 93.335938 173.503906 93.425781 173.578125 93.617188 L 178.109375 104.980469 C 178.1875 105.167969 178.09375 105.382812 177.90625 105.457031 C 177.863281 105.476562 177.816406 105.484375 177.769531 105.484375 " fill-opacity="1" fill-rule="nonzero"/><path fill="#000000" d="M 181.386719 105.484375 C 181.183594 105.484375 181.019531 105.320312 181.019531 105.117188 L 181.019531 96.023438 C 181.019531 95.820312 181.183594 95.65625 181.386719 95.65625 C 181.589844 95.65625 181.753906 95.820312 181.753906 96.023438 L 181.753906 105.117188 C 181.753906 105.320312 181.589844 105.484375 181.386719 105.484375 " fill-opacity="1" fill-rule="nonzero"/></svg>