<svg xmlns="http://www.w3.org/2000/svg" width="32" height="32" viewBox="0 0 24 24"><g fill="#000000"><path fill="#000000" fill-opacity="0.25" fill-rule="#000000" d="M5.172 6.172C4 7.343 4 9.229 4 13v5.586c0 .89 1.077 1.337 1.707.707l2.147-2.147c.072-.072.108-.108.154-.127s.097-.019.2-.019H14c1.864 0 2.796 0 3.53-.305a4 4 0 0 0 2.165-2.164C20 13.796 20 12.864 20 11s0-2.796-.305-3.53a4 4 0 0 0-2.164-2.166C16.796 5 15.864 5 14 5h-2C8.229 5 6.343 5 5.172 6.172" clip-rule="evenodd"/><path stroke="#000000" stroke-linecap="round" stroke-linejoin="round" d="M8.5 9.5h7m-7 3h5"/></g></svg>