<svg xmlns="http://www.w3.org/2000/svg" xmlns:xlink="http://www.w3.org/1999/xlink" width="40" zoomAndPan="magnify" viewBox="0 0 30 30.000001" height="40" preserveAspectRatio="xMidYMid meet" version="1.0"><defs><g/><clipPath id="dc89bdcb74"><path d="M 2.878906 2.902344 L 27.121094 2.902344 L 27.121094 27.144531 L 2.878906 27.144531 Z M 2.878906 2.902344 " clip-rule="nonzero"/></clipPath><clipPath id="d03b15ad0a"><path d="M 15 2.902344 C 8.304688 2.902344 2.878906 8.328125 2.878906 15.023438 C 2.878906 21.71875 8.304688 27.144531 15 27.144531 C 21.695312 27.144531 27.121094 21.71875 27.121094 15.023438 C 27.121094 8.328125 21.695312 2.902344 15 2.902344 Z M 15 2.902344 " clip-rule="nonzero"/></clipPath></defs><g clip-path="url(#dc89bdcb74)"><g clip-path="url(#d03b15ad0a)"><path fill="#00bf63" d="M 2.878906 2.902344 L 27.121094 2.902344 L 27.121094 27.144531 L 2.878906 27.144531 Z M 2.878906 2.902344 " fill-opacity="1" fill-rule="nonzero"/></g></g><g fill="#ffffff" fill-opacity="1"><g transform="translate(5.343372, 20.288873)"><g><path d="M 0.78125 -0.765625 L 1.09375 -3.296875 C 1.550781 -2.960938 2.003906 -2.726562 2.453125 -2.59375 C 2.910156 -2.457031 3.320312 -2.375 3.6875 -2.34375 C 4.0625 -2.320312 4.335938 -2.316406 4.515625 -2.328125 C 4.867188 -2.347656 5.171875 -2.472656 5.421875 -2.703125 C 5.679688 -2.929688 5.789062 -3.210938 5.75 -3.546875 C 5.726562 -3.890625 5.597656 -4.148438 5.359375 -4.328125 C 5.128906 -4.503906 4.847656 -4.648438 4.515625 -4.765625 C 3.890625 -5.003906 3.304688 -5.273438 2.765625 -5.578125 C 2.222656 -5.890625 1.785156 -6.273438 1.453125 -6.734375 C 1.117188 -7.191406 0.953125 -7.753906 0.953125 -8.421875 C 0.953125 -9.097656 1.09375 -9.707031 1.375 -10.25 C 1.664062 -10.789062 2.066406 -11.222656 2.578125 -11.546875 C 3.097656 -11.867188 3.6875 -12.046875 4.34375 -12.078125 C 4.65625 -12.097656 5.035156 -12.085938 5.484375 -12.046875 C 5.941406 -12.003906 6.554688 -11.847656 7.328125 -11.578125 L 7.03125 -9.265625 C 6.375 -9.535156 5.847656 -9.6875 5.453125 -9.71875 C 5.054688 -9.757812 4.765625 -9.773438 4.578125 -9.765625 C 4.148438 -9.742188 3.835938 -9.597656 3.640625 -9.328125 C 3.453125 -9.054688 3.367188 -8.753906 3.390625 -8.421875 C 3.421875 -8.085938 3.566406 -7.832031 3.828125 -7.65625 C 4.085938 -7.488281 4.390625 -7.34375 4.734375 -7.21875 C 5.359375 -6.988281 5.929688 -6.707031 6.453125 -6.375 C 6.984375 -6.050781 7.40625 -5.65625 7.71875 -5.1875 C 8.039062 -4.726562 8.203125 -4.179688 8.203125 -3.546875 C 8.203125 -2.878906 8.054688 -2.273438 7.765625 -1.734375 C 7.472656 -1.203125 7.054688 -0.773438 6.515625 -0.453125 C 5.972656 -0.128906 5.328125 0.0507812 4.578125 0.09375 C 4.359375 0.113281 4.054688 0.109375 3.671875 0.078125 C 3.285156 0.046875 2.84375 -0.03125 2.34375 -0.15625 C 1.851562 -0.289062 1.332031 -0.492188 0.78125 -0.765625 Z M 0.78125 -0.765625 "/></g></g></g><g fill="#ffffff" fill-opacity="1"><g transform="translate(14.22223, 20.288873)"><g><path d="M 1.34375 0 L 1.34375 -12.015625 L 6.09375 -12.015625 C 6.8125 -12.015625 7.425781 -11.859375 7.9375 -11.546875 C 8.445312 -11.234375 8.835938 -10.800781 9.109375 -10.25 C 9.390625 -9.707031 9.519531 -9.082031 9.5 -8.375 C 9.488281 -7.925781 9.394531 -7.484375 9.21875 -7.046875 C 9.050781 -6.609375 8.773438 -6.257812 8.390625 -6 C 8.785156 -5.738281 9.085938 -5.390625 9.296875 -4.953125 C 9.515625 -4.523438 9.625 -4.078125 9.625 -3.609375 C 9.625 -2.929688 9.460938 -2.320312 9.140625 -1.78125 C 8.828125 -1.238281 8.398438 -0.804688 7.859375 -0.484375 C 7.328125 -0.160156 6.738281 0 6.09375 0 Z M 3.765625 -9.609375 L 3.765625 -7.203125 L 5.890625 -7.203125 C 6.234375 -7.203125 6.503906 -7.320312 6.703125 -7.5625 C 6.898438 -7.800781 7 -8.082031 7 -8.40625 C 7 -8.738281 6.898438 -9.019531 6.703125 -9.25 C 6.503906 -9.488281 6.234375 -9.609375 5.890625 -9.609375 Z M 3.765625 -4.796875 L 3.765625 -2.40625 L 5.890625 -2.40625 C 6.234375 -2.40625 6.519531 -2.519531 6.75 -2.75 C 6.976562 -2.988281 7.09375 -3.273438 7.09375 -3.609375 C 7.09375 -3.941406 6.976562 -4.222656 6.75 -4.453125 C 6.519531 -4.679688 6.234375 -4.796875 5.890625 -4.796875 Z M 3.765625 -4.796875 "/></g></g></g></svg>