<svg xmlns="http://www.w3.org/2000/svg" xmlns:xlink="http://www.w3.org/1999/xlink" width="250" zoomAndPan="magnify" viewBox="0 0 187.5 112.499997" height="150" preserveAspectRatio="xMidYMid meet" version="1.0"><defs><g/><clipPath id="b4960a8376"><path d="M 0.914062 54.792969 L 184.597656 54.792969 L 184.597656 104.949219 L 0.914062 104.949219 Z M 0.914062 54.792969 " clip-rule="nonzero"/></clipPath></defs><path fill="#00bf63" d="M 6.554688 60.433594 C 6.730469 60.519531 6.910156 60.605469 7.082031 60.6875 C 6.757812 60.882812 6.269531 60.921875 5.707031 60.867188 C 11.214844 62.824219 18.363281 60.929688 22.886719 58.328125 C 24.570312 58.285156 26.03125 57.503906 26.144531 56.566406 C 26.257812 55.632812 24.980469 54.90625 23.28125 54.941406 C 22.902344 54.859375 22.464844 54.816406 22.1875 54.679688 C 19.714844 53.417969 16.738281 52.644531 13.46875 52.140625 C 14.105469 52.363281 14.765625 52.59375 15.402344 52.816406 C 14.460938 52.660156 13.527344 52.488281 12.484375 52.550781 C 12.605469 52.703125 12.742188 52.878906 12.867188 53.035156 C 9.59375 52.035156 5.269531 52.730469 3.128906 54.636719 C 0.984375 56.539062 1.855469 58.910156 5.109375 59.9375 L 6.554688 60.433594 " fill-opacity="1" fill-rule="nonzero"/><path fill="#00bf63" d="M 12.78125 65.414062 C 10.820312 64.945312 8.953125 64.398438 7.074219 63.855469 L 6.695312 63.5625 L 6.878906 64.976562 L 6.910156 64.882812 C 8.597656 63.578125 11.414062 62.929688 14.046875 62.394531 L 14.976562 62.121094 C 15.421875 61.90625 15.707031 61.609375 15.789062 61.300781 C 15.976562 60.605469 15.125 60.019531 13.890625 59.992188 L 12.46875 59.964844 C 8.984375 59.382812 3.609375 59.671875 1.78125 62.203125 C 1.375 62.789062 1.777344 63.46875 1.898438 64.113281 C 1.804688 65.0625 3.128906 65.804688 4.851562 65.761719 C 6.574219 65.71875 8.023438 64.917969 8.101562 63.964844 C 8.394531 64.011719 8.699219 64.058594 8.988281 64.105469 C 8.765625 64.230469 8.542969 64.359375 8.316406 64.488281 C 8.765625 63.636719 10.324219 63.355469 11.46875 62.84375 L 13.210938 62.492188 L 12.121094 60.359375 L 11.222656 60.714844 C 11.296875 60.800781 11.433594 60.933594 11.421875 60.941406 C 9.722656 61.652344 8.125 62.351562 6.246094 62.859375 L 3.898438 63.8125 C 3.265625 64.269531 3.355469 64.890625 4.078125 65.230469 L 5.15625 65.636719 C 4.988281 65.554688 4.828125 65.472656 4.664062 65.386719 C 7.125 65.730469 9.710938 65.867188 12.15625 66.234375 C 12.542969 66.3125 13.003906 66.1875 13.199219 65.957031 C 13.359375 65.726562 13.183594 65.484375 12.78125 65.414062 " fill-opacity="1" fill-rule="nonzero"/><path fill="#00bf63" d="M 4.171875 66.257812 C 3.769531 66.117188 3.382812 65.960938 2.820312 66.035156 C 2.6875 66.144531 2.621094 66.195312 2.585938 66.226562 C 2.796875 66.316406 3.085938 66.433594 3.375 66.554688 C 3.941406 66.789062 4.21875 66.5625 4.171875 66.257812 " fill-opacity="1" fill-rule="nonzero"/><path fill="#00bf63" d="M 2.585938 66.226562 C 2.386719 66.144531 2.257812 66.085938 2.257812 66.085938 C 2.335938 66.15625 2.410156 66.21875 2.480469 66.28125 C 2.539062 66.261719 2.542969 66.261719 2.542969 66.261719 C 2.542969 66.261719 2.546875 66.257812 2.585938 66.226562 " fill-opacity="1" fill-rule="nonzero"/><path fill="#00bf63" d="M 111.398438 58.070312 C 113.375 58.3125 115.339844 58.460938 117.324219 58.753906 L 123.269531 59.570312 C 125.253906 59.859375 127.230469 60.039062 129.222656 60.398438 L 135.183594 61.402344 C 135.453125 61.449219 135.683594 61.378906 135.710938 61.242188 C 135.738281 61.125 135.539062 60.976562 135.292969 60.941406 C 133.300781 60.605469 131.3125 60.265625 129.328125 59.925781 C 127.339844 59.554688 125.363281 59.375 123.382812 59.085938 L 117.441406 58.265625 C 115.460938 57.964844 113.496094 57.824219 111.519531 57.582031 C 111.253906 57.5625 111.03125 57.648438 110.988281 57.777344 C 110.96875 57.914062 111.152344 58.042969 111.398438 58.070312 " fill-opacity="1" fill-rule="nonzero"/><path fill="#00bf63" d="M 168.058594 81.71875 C 167.855469 81.761719 167.832031 81.902344 167.996094 82.054688 C 168.136719 82.1875 168.417969 82.285156 168.617188 82.242188 C 168.789062 82.207031 168.816406 82.039062 168.675781 81.910156 C 168.515625 81.753906 168.226562 81.679688 168.058594 81.71875 " fill-opacity="1" fill-rule="nonzero"/><g clip-path="url(#b4960a8376)"><path fill="#00bf63" d="M 9.882812 86.136719 L 10.839844 83.296875 L 9.78125 86.03125 Z M 7.226562 69.949219 C 7.058594 69.8125 6.957031 69.726562 6.824219 69.675781 C 7.226562 69.949219 7.226562 69.949219 7.226562 69.949219 Z M 4.457031 69.417969 C 4.554688 69.441406 4.652344 69.460938 4.757812 69.480469 C 4.660156 69.691406 4.558594 69.625 4.457031 69.417969 Z M 5.03125 68.441406 C 4.972656 68.402344 4.914062 68.363281 4.847656 68.320312 C 4.847656 68.320312 4.847656 68.320312 5.214844 67.742188 C 5.214844 67.742188 5.136719 68.039062 5.03125 68.441406 Z M 19.542969 66.050781 C 20.664062 66.519531 21.546875 67.136719 22.382812 67.777344 C 23.097656 67.601562 23.851562 67.5 24.613281 67.472656 C 26.667969 67.402344 28.671875 67.398438 30.648438 67.453125 C 30.375 67.097656 30.847656 67.109375 31.085938 67.046875 C 31.335938 67 31.578125 66.949219 31.824219 66.902344 C 29.710938 66.789062 27.59375 66.652344 25.4375 66.492188 C 23.492188 66.355469 21.390625 66.339844 19.542969 66.050781 Z M 93.734375 61.175781 C 89.464844 61.109375 85.261719 60.953125 81.039062 60.3125 C 82.066406 60.246094 83.09375 60.179688 84.121094 60.113281 C 87.320312 60.414062 90.511719 60.703125 93.734375 61.175781 Z M 15.925781 74.175781 C 15.929688 74.175781 15.929688 74.175781 15.933594 74.175781 C 15.59375 73.855469 15.351562 73.625 15.351562 73.625 C 15.585938 73.847656 15.773438 74.027344 15.925781 74.175781 Z M 27.863281 69.449219 C 27.78125 69.394531 27.71875 69.351562 27.65625 69.308594 C 27.875 69.375 28.105469 69.445312 28.363281 69.523438 C 28.363281 69.523438 28.363281 69.523438 29.382812 70.503906 C 29.382812 70.503906 28.621094 69.976562 27.863281 69.449219 Z M 164.214844 91.554688 C 163.164062 91.425781 162.164062 91.34375 161.246094 91.433594 C 161.074219 91.433594 160.902344 91.363281 160.777344 91.269531 C 160.792969 91.503906 160.5625 91.636719 160.183594 91.609375 C 158.332031 91.433594 156.402344 91.441406 154.492188 91.289062 C 152.578125 91.160156 150.65625 90.980469 148.730469 90.769531 C 147.769531 90.640625 146.789062 90.597656 145.8125 90.539062 L 142.878906 90.347656 C 140.929688 90.21875 138.980469 90.085938 137.03125 89.953125 C 136.964844 90.121094 136.84375 90.273438 136.652344 90.40625 C 136.058594 90.878906 134.960938 91.015625 133.859375 90.765625 L 133.03125 90.515625 C 131.347656 90.136719 129.667969 89.753906 127.992188 89.375 C 127.148438 89.195312 126.3125 88.980469 125.46875 88.820312 L 122.929688 88.34375 C 122.214844 88.53125 121.394531 88.621094 120.515625 88.59375 C 117.527344 89.015625 114.5625 89.335938 111.507812 89.726562 C 111.691406 89.886719 111.796875 90.078125 111.789062 90.273438 C 111.710938 90.746094 110.996094 91.0625 110.183594 91 L 108.949219 90.96875 C 110.121094 91.152344 111.300781 91.335938 112.472656 91.519531 C 112.640625 91.539062 112.796875 91.574219 112.9375 91.625 C 114.222656 91.710938 115.523438 91.796875 116.847656 91.886719 C 119.726562 92.046875 122.570312 92.113281 125.394531 92.109375 C 128.191406 92.21875 130.964844 92.277344 133.730469 92.269531 C 136.507812 92.199219 139.210938 92.359375 141.941406 92.390625 C 144.667969 92.445312 147.414062 92.371094 150.101562 92.589844 C 150.285156 92.558594 150.554688 92.636719 150.6875 92.789062 C 150.773438 92.925781 150.730469 93.074219 150.527344 93.085938 C 147.058594 93.34375 143.734375 94.238281 140.394531 94.863281 C 138.71875 95.210938 137.046875 95.449219 135.285156 95.757812 C 133.523438 96.070312 131.710938 96.3125 129.800781 96.441406 C 125.277344 96.667969 120.722656 97.226562 116.203125 97.566406 C 111.65625 97.996094 107.089844 98.425781 102.445312 98.867188 C 97.558594 98.804688 92.894531 98.882812 88.128906 99.378906 C 85.757812 99.613281 83.382812 99.847656 80.96875 100.082031 C 78.546875 100.378906 76.09375 100.675781 73.578125 100.984375 C 59.992188 102.613281 47.011719 103.683594 33.371094 104.769531 C 28.265625 105.519531 23.476562 103.882812 22.660156 101.144531 C 22.1875 99.480469 23.285156 97.800781 25.34375 96.5625 C 24.921875 96.578125 24.507812 96.597656 24.089844 96.617188 L 22.078125 96.421875 C 20.179688 96.21875 18.535156 95.636719 17.476562 94.761719 L 16.027344 93.6875 C 14.074219 91.597656 10.980469 89.929688 9.359375 87.6875 L 9.660156 86.792969 L 9.292969 86.558594 C 8.078125 85.988281 7.242188 85.203125 6.929688 84.324219 L 7 83.253906 C 7.199219 82.023438 7.742188 80.84375 8.644531 79.710938 C 8.589844 79.261719 8.683594 78.8125 8.914062 78.378906 C 8.058594 77.339844 7.628906 76.226562 8.214844 74.925781 C 7.714844 74.644531 7.777344 74.175781 8.34375 73.871094 C 8.539062 73.769531 8.777344 73.703125 9.019531 73.664062 C 9.015625 73.660156 9.011719 73.660156 9.011719 73.660156 C 8.734375 73.402344 8.652344 73.324219 8.28125 73.039062 C 7.796875 72.964844 7.511719 72.925781 7.511719 72.925781 C 6.222656 72.804688 6.222656 72.804688 5.109375 72.707031 C 4.136719 72.390625 3.527344 71.910156 3.527344 71.910156 C 2.394531 70.074219 2.398438 70.074219 2.527344 69.246094 C 2.585938 69.160156 2.652344 69.078125 2.722656 69 C 1.867188 68.78125 1.808594 68.761719 1.578125 68.691406 C 1.335938 68.558594 1.164062 68.402344 1.164062 68.402344 C 1.109375 67.964844 1.109375 67.964844 0.960938 67.8125 C 0.90625 67.644531 0.914062 67.484375 0.914062 67.484375 C 1.363281 66.960938 1.363281 66.960938 1.371094 66.824219 C 1.476562 66.683594 1.625 66.566406 1.625 66.566406 C 2.171875 66.386719 2.390625 66.3125 2.480469 66.28125 C 3.707031 67.34375 3.710938 67.347656 3.710938 67.347656 C 3.953125 66.941406 3.953125 66.941406 3.953125 66.941406 C 4.25 67.445312 4.25 67.445312 4.25 67.445312 C 4.074219 66.976562 4.074219 66.976562 4.074219 66.976562 C 4.683594 67.230469 4.683594 67.230469 4.683594 67.230469 C 3.984375 66.851562 3.984375 66.851562 3.984375 66.851562 C 5.40625 66.9375 5.40625 66.9375 5.972656 66.886719 C 6.5625 66.90625 7.058594 66.761719 7.121094 66.746094 C 7.0625 66.601562 7.058594 66.492188 7.058594 66.492188 C 8.578125 66.597656 8.578125 66.597656 10.058594 66.699219 C 10.199219 66.792969 10.3125 66.894531 10.421875 66.992188 C 10.554688 66.851562 10.832031 66.757812 11.128906 66.777344 L 11.90625 66.8125 C 11.960938 66.785156 12.015625 66.757812 12.066406 66.734375 C 12.066406 66.710938 12.066406 66.695312 12.066406 66.695312 C 12.324219 66.589844 12.503906 66.511719 12.710938 66.425781 C 12.839844 66.363281 12.84375 66.359375 12.84375 66.359375 L 12.851562 66.367188 C 13.292969 66.179688 13.9375 65.910156 15.640625 65.195312 C 16.105469 65.21875 16.535156 65.265625 16.945312 65.328125 C 16.808594 65.269531 16.683594 65.207031 16.558594 65.140625 C 16.308594 65.003906 16.507812 64.566406 16.375 64.535156 C 13.085938 63.875 9.550781 63.738281 6.074219 63.46875 C 5.457031 63.5625 4.863281 63.347656 4.757812 63.011719 C 4.664062 62.667969 5.09375 62.324219 5.726562 62.238281 C 9.179688 60.890625 13.0625 60.148438 17.019531 59.878906 C 20.960938 59.625 24.980469 59.867188 28.667969 60.507812 C 30.597656 60.589844 32.527344 60.636719 34.476562 60.683594 L 34.1875 60.488281 L 35.710938 60.707031 L 35.875 60.710938 C 35.480469 60.480469 35.089844 60.25 34.695312 60.019531 C 34.429688 59.964844 34.164062 59.90625 33.894531 59.851562 C 29.398438 59.851562 25.261719 58.957031 20.914062 58.5 C 18.578125 58.246094 16.558594 57.652344 14.347656 57.257812 C 13.78125 57.257812 13.378906 57.007812 13.433594 56.6875 C 13.484375 56.382812 14 56.132812 14.550781 56.128906 C 21.796875 55.09375 30.207031 54.964844 36.238281 57.179688 C 37.589844 57.105469 38.898438 57.226562 40 57.628906 L 40.058594 57.632812 C 39.765625 57.433594 39.488281 57.246094 39.199219 57.046875 C 40.214844 57.136719 40.777344 57.628906 41.707031 57.789062 C 41.582031 57.507812 41.453125 57.21875 41.324219 56.9375 C 46.308594 57.121094 51.746094 56.578125 56.414062 57.550781 C 56.601562 57.554688 56.773438 57.574219 56.953125 57.597656 C 58.929688 56.886719 60.941406 56.195312 63.320312 55.996094 C 62.511719 55.941406 61.722656 55.890625 60.910156 55.832031 C 62.625 55.371094 64.332031 55.03125 66.183594 54.984375 C 71.203125 54.828125 76.898438 56.0625 79.574219 58.261719 C 82.011719 58.132812 84.464844 58.074219 86.910156 57.976562 C 89.359375 57.90625 91.792969 57.75 94.257812 57.75 C 99.183594 57.703125 104.089844 57.507812 109.046875 57.558594 C 109.558594 57.546875 110.011719 57.757812 110.09375 58.019531 C 110.136719 58.277344 109.789062 58.511719 109.28125 58.523438 C 107.503906 58.660156 105.726562 58.757812 103.945312 58.859375 C 102.175781 59.003906 100.398438 59.125 98.621094 59.234375 C 96.84375 59.328125 95.0625 59.421875 93.28125 59.515625 C 91.5 59.597656 89.734375 59.757812 87.957031 59.859375 C 89.4375 59.960938 90.925781 60.058594 92.414062 60.15625 C 93.90625 60.28125 95.402344 60.40625 96.902344 60.535156 C 99.90625 60.792969 102.914062 60.894531 105.972656 61.121094 C 106.753906 61.125 107.539062 61.128906 108.328125 61.132812 C 109.105469 61.132812 109.875 61.246094 110.636719 61.390625 C 112.59375 61.503906 114.523438 61.59375 116.445312 61.734375 C 118.371094 61.90625 120.285156 62.074219 122.207031 62.242188 C 124.128906 62.402344 126.054688 62.523438 128.007812 62.644531 C 129.964844 62.832031 131.945312 62.988281 133.96875 63.101562 C 135.695312 63.1875 137.371094 63.273438 139.019531 63.359375 C 140.671875 63.460938 142.296875 63.65625 143.925781 63.789062 C 145.558594 63.925781 147.191406 64.066406 148.851562 64.207031 C 149.679688 64.273438 150.519531 64.339844 151.367188 64.40625 C 152.214844 64.515625 153.074219 64.628906 153.945312 64.742188 C 158.851562 65.390625 163.578125 65.863281 168.253906 67.03125 C 170.59375 67.558594 172.933594 68.09375 175.277344 68.753906 C 177.609375 69.539062 179.945312 70.386719 182.316406 71.328125 C 183.597656 71.753906 184.636719 72.675781 184.597656 73.363281 C 184.570312 74.050781 183.5 74.265625 182.230469 73.84375 C 179.722656 73.128906 177.222656 72.414062 174.726562 71.699219 C 172.222656 71.105469 169.714844 70.625 167.21875 70.085938 L 163.480469 69.296875 C 162.238281 69.011719 160.980469 68.894531 159.734375 68.683594 C 157.246094 68.292969 154.75 67.90625 152.253906 67.515625 C 151.007812 67.28125 149.757812 67.183594 148.507812 67.035156 C 147.261719 66.890625 146.011719 66.742188 144.761719 66.59375 C 142.261719 66.324219 139.757812 65.882812 137.246094 65.707031 C 134.730469 65.472656 132.210938 65.207031 129.679688 64.902344 L 127.773438 64.667969 L 125.871094 64.496094 C 124.601562 64.367188 123.324219 64.242188 122.042969 64.113281 C 119.835938 63.875 117.664062 63.644531 115.503906 63.414062 C 115.523438 63.503906 115.546875 63.59375 115.542969 63.683594 C 115.527344 64.046875 115.304688 64.371094 114.949219 64.632812 C 117.390625 64.878906 119.855469 65.296875 122.316406 65.699219 C 124.050781 65.675781 125.789062 65.648438 127.53125 65.625 C 129.273438 65.6875 131.027344 65.773438 132.796875 65.894531 C 134.5625 66.015625 136.34375 66.175781 138.140625 66.394531 C 139.933594 66.589844 141.746094 67.039062 143.574219 67.460938 C 146.085938 68.078125 148.457031 68.792969 150.761719 69.566406 C 153.0625 70.464844 155.296875 71.40625 157.554688 72.339844 L 162.011719 73.125 L 166.453125 74.179688 C 167.9375 74.539062 169.421875 74.898438 170.910156 75.257812 L 173.152344 75.816406 C 173.894531 76.039062 174.628906 76.292969 175.371094 76.539062 C 175.613281 76.585938 175.839844 76.746094 175.894531 76.902344 C 175.945312 77.058594 175.789062 77.132812 175.542969 77.082031 C 174.488281 76.90625 173.449219 76.625 172.378906 76.496094 C 171.316406 76.335938 170.253906 76.175781 169.1875 76.015625 C 167.054688 75.675781 164.921875 75.300781 162.785156 74.914062 C 163.363281 75.523438 163.648438 76.171875 163.484375 76.726562 C 163.3125 77.308594 162.703125 77.679688 161.863281 77.808594 L 164.648438 78.742188 C 165.21875 78.945312 165.625 79.316406 165.546875 79.605469 C 165.46875 79.921875 164.964844 80.003906 164.421875 79.824219 C 160.660156 78.472656 156.832031 77.640625 153.027344 76.601562 L 149.558594 75.996094 L 146.078125 75.566406 C 143.765625 75.261719 141.449219 74.960938 139.128906 74.65625 C 139.722656 75.175781 140.136719 75.753906 140.296875 76.351562 L 140.292969 76.363281 C 141.007812 76.480469 141.714844 76.601562 142.421875 76.71875 C 155.566406 77.394531 169.136719 80.0625 181.996094 86.058594 C 182.253906 86.15625 182.433594 86.34375 182.394531 86.480469 C 182.363281 86.617188 182.132812 86.648438 181.90625 86.546875 C 179.957031 85.71875 178 84.914062 176.035156 84.140625 L 173.09375 83.003906 L 171.617188 82.453125 L 170.121094 82.019531 L 170.136719 82.03125 C 170.277344 82.160156 170.273438 82.320312 170.074219 82.363281 C 169.902344 82.402344 169.589844 82.304688 169.449219 82.175781 C 169.289062 82.023438 169.339844 81.878906 169.507812 81.839844 C 167.648438 81.304688 165.789062 80.796875 163.929688 80.3125 L 161.144531 79.597656 C 160.21875 79.371094 159.273438 79.246094 158.339844 79.070312 C 156.46875 78.746094 154.601562 78.445312 152.742188 78.164062 L 149.953125 77.757812 C 149.027344 77.628906 148.089844 77.59375 147.160156 77.515625 C 148.015625 77.664062 148.871094 77.789062 149.71875 77.964844 L 152.257812 78.554688 L 157.335938 79.777344 C 160.730469 80.515625 164.039062 81.769531 167.351562 82.929688 C 168.117188 82.996094 168.882812 83.058594 169.660156 83.125 C 169.867188 83.15625 170.113281 83.320312 170.164062 83.472656 C 170.195312 83.601562 170.015625 83.691406 169.804688 83.65625 L 169.160156 83.589844 C 170.410156 84.046875 171.253906 84.910156 171.058594 85.613281 C 170.820312 86.292969 169.617188 86.511719 168.328125 86.070312 C 166.578125 85.570312 164.835938 85.074219 163.089844 84.578125 C 161.351562 84.058594 159.625 83.515625 157.859375 83.140625 L 156.703125 82.988281 L 155.503906 83.042969 L 159.535156 84.28125 C 160.863281 84.75 162.179688 85.28125 163.5 85.78125 L 167.445312 87.308594 C 168.75 87.847656 170.078125 88.273438 171.34375 88.925781 C 171.792969 89.097656 172.125 89.449219 172.070312 89.699219 C 172.023438 89.949219 171.609375 90.019531 171.160156 89.847656 C 161.679688 87.636719 152.140625 85.601562 142.4375 84.40625 C 140.800781 84.664062 139.15625 84.917969 137.507812 85.175781 C 135.863281 85.507812 134.207031 85.835938 132.539062 86.171875 C 132.941406 86.246094 133.351562 86.316406 133.761719 86.375 C 135.0625 86.5625 136.355469 86.648438 137.613281 86.789062 C 138.871094 86.9375 140.117188 87.046875 141.355469 87.125 C 143.824219 87.296875 146.277344 87.28125 148.707031 87.371094 C 151.125 87.527344 153.546875 87.664062 156.003906 87.875 C 157.226562 88 158.476562 88.066406 159.703125 88.304688 C 160.929688 88.542969 162.171875 88.8125 163.421875 89.125 C 163.675781 89.171875 163.859375 89.347656 163.863281 89.484375 C 163.867188 89.617188 163.671875 89.691406 163.421875 89.613281 C 162.195312 89.335938 160.988281 89.105469 159.796875 88.90625 C 158.609375 88.675781 157.390625 88.660156 156.199219 88.554688 C 153.800781 88.386719 151.417969 88.265625 148.957031 88.039062 C 144.859375 87.796875 140.949219 87.730469 137.144531 87.835938 C 140.957031 88.425781 144.746094 88.660156 148.523438 88.984375 C 150.398438 89.21875 152.277344 89.453125 154.160156 89.683594 C 155.105469 89.8125 156.046875 89.941406 156.996094 90.070312 C 157.945312 90.199219 158.894531 90.339844 159.828125 90.585938 C 160.160156 90.628906 160.472656 90.792969 160.652344 90.992188 C 160.683594 90.929688 160.761719 90.882812 160.867188 90.875 C 161.859375 90.820312 162.917969 90.894531 163.996094 91.015625 C 164.207031 91.019531 164.445312 91.152344 164.519531 91.324219 C 164.597656 91.464844 164.449219 91.550781 164.214844 91.554688 " fill-opacity="1" fill-rule="nonzero"/></g><g fill="#00bf63" fill-opacity="1"><g transform="translate(12.359008, 52.25643)"><g><path d="M 1.40625 -28.71875 C 1.40625 -31.769531 2.132812 -34.113281 3.59375 -35.75 C 5.050781 -37.382812 7.234375 -38.203125 10.140625 -38.203125 C 13.054688 -38.203125 15.242188 -37.382812 16.703125 -35.75 C 18.160156 -34.113281 18.890625 -31.769531 18.890625 -28.71875 L 18.890625 -27.25 L 13.28125 -27.25 L 13.28125 -29.09375 C 13.28125 -30.457031 13.019531 -31.414062 12.5 -31.96875 C 11.976562 -32.53125 11.25 -32.8125 10.3125 -32.8125 C 9.375 -32.8125 8.644531 -32.53125 8.125 -31.96875 C 7.601562 -31.414062 7.34375 -30.457031 7.34375 -29.09375 C 7.34375 -27.789062 7.628906 -26.644531 8.203125 -25.65625 C 8.773438 -24.664062 9.492188 -23.726562 10.359375 -22.84375 C 11.222656 -21.96875 12.148438 -21.085938 13.140625 -20.203125 C 14.128906 -19.328125 15.054688 -18.367188 15.921875 -17.328125 C 16.785156 -16.285156 17.503906 -15.097656 18.078125 -13.765625 C 18.648438 -12.429688 18.9375 -10.863281 18.9375 -9.0625 C 18.9375 -6.007812 18.191406 -3.660156 16.703125 -2.015625 C 15.210938 -0.378906 13.007812 0.4375 10.09375 0.4375 C 7.175781 0.4375 4.96875 -0.378906 3.46875 -2.015625 C 1.976562 -3.660156 1.234375 -6.007812 1.234375 -9.0625 L 1.234375 -11.65625 L 6.859375 -11.65625 L 6.859375 -8.6875 C 6.859375 -7.320312 7.132812 -6.367188 7.6875 -5.828125 C 8.25 -5.285156 9 -5.015625 9.9375 -5.015625 C 10.863281 -5.015625 11.601562 -5.285156 12.15625 -5.828125 C 12.71875 -6.367188 13 -7.320312 13 -8.6875 C 13 -9.976562 12.710938 -11.117188 12.140625 -12.109375 C 11.566406 -13.097656 10.847656 -14.035156 9.984375 -14.921875 C 9.117188 -15.804688 8.191406 -16.6875 7.203125 -17.5625 C 6.210938 -18.445312 5.285156 -19.410156 4.421875 -20.453125 C 3.554688 -21.492188 2.835938 -22.679688 2.265625 -24.015625 C 1.691406 -25.347656 1.40625 -26.914062 1.40625 -28.71875 Z M 1.40625 -28.71875 "/></g></g></g><g fill="#00bf63" fill-opacity="1"><g transform="translate(32.542255, 52.25643)"><g><path d="M 21.375 0 L 15.375 0 L 14.359375 -6.859375 L 7.0625 -6.859375 L 6.046875 0 L 0.59375 0 L 6.640625 -37.78125 L 15.328125 -37.78125 Z M 7.828125 -11.984375 L 13.546875 -11.984375 L 10.6875 -31.09375 Z M 7.828125 -11.984375 "/></g></g></g><g fill="#00bf63" fill-opacity="1"><g transform="translate(54.506376, 52.25643)"><g><path d="M 11.125 -37.78125 C 14.21875 -37.78125 16.457031 -37.054688 17.84375 -35.609375 C 19.226562 -34.171875 19.921875 -32 19.921875 -29.09375 L 19.921875 -27.734375 C 19.921875 -25.796875 19.613281 -24.195312 19 -22.9375 C 18.382812 -21.675781 17.410156 -20.738281 16.078125 -20.125 C 17.703125 -19.519531 18.847656 -18.523438 19.515625 -17.140625 C 20.179688 -15.753906 20.515625 -14.050781 20.515625 -12.03125 L 20.515625 -8.953125 C 20.515625 -6.046875 19.753906 -3.828125 18.234375 -2.296875 C 16.722656 -0.765625 14.476562 0 11.5 0 L 2.15625 0 L 2.15625 -37.78125 Z M 8.09375 -17 L 8.09375 -5.390625 L 11.5 -5.390625 C 12.5 -5.390625 13.257812 -5.660156 13.78125 -6.203125 C 14.3125 -6.742188 14.578125 -7.71875 14.578125 -9.125 L 14.578125 -12.40625 C 14.578125 -14.175781 14.28125 -15.382812 13.6875 -16.03125 C 13.09375 -16.675781 12.109375 -17 10.734375 -17 Z M 8.09375 -32.375 L 8.09375 -22.390625 L 10.421875 -22.390625 C 11.535156 -22.390625 12.40625 -22.675781 13.03125 -23.25 C 13.664062 -23.832031 13.984375 -24.878906 13.984375 -26.390625 L 13.984375 -28.5 C 13.984375 -29.863281 13.738281 -30.847656 13.25 -31.453125 C 12.757812 -32.066406 11.992188 -32.375 10.953125 -32.375 Z M 8.09375 -32.375 "/></g></g></g><g fill="#00bf63" fill-opacity="1"><g transform="translate(76.41653, 52.25643)"><g><path d="M 7.609375 -8.6875 C 7.609375 -7.320312 7.882812 -6.359375 8.4375 -5.796875 C 9 -5.242188 9.75 -4.96875 10.6875 -4.96875 C 11.625 -4.96875 12.367188 -5.242188 12.921875 -5.796875 C 13.484375 -6.359375 13.765625 -7.320312 13.765625 -8.6875 L 13.765625 -29.09375 C 13.765625 -30.457031 13.484375 -31.414062 12.921875 -31.96875 C 12.367188 -32.53125 11.625 -32.8125 10.6875 -32.8125 C 9.75 -32.8125 9 -32.53125 8.4375 -31.96875 C 7.882812 -31.414062 7.609375 -30.457031 7.609375 -29.09375 Z M 1.671875 -28.71875 C 1.671875 -31.769531 2.441406 -34.113281 3.984375 -35.75 C 5.535156 -37.382812 7.769531 -38.203125 10.6875 -38.203125 C 13.601562 -38.203125 15.832031 -37.382812 17.375 -35.75 C 18.925781 -34.113281 19.703125 -31.769531 19.703125 -28.71875 L 19.703125 -9.0625 C 19.703125 -6.007812 18.925781 -3.660156 17.375 -2.015625 C 15.832031 -0.378906 13.601562 0.4375 10.6875 0.4375 C 7.769531 0.4375 5.535156 -0.378906 3.984375 -2.015625 C 2.441406 -3.660156 1.671875 -6.007812 1.671875 -9.0625 Z M 1.671875 -28.71875 "/></g></g></g><g fill="#00bf63" fill-opacity="1"><g transform="translate(97.787016, 52.25643)"><g><path d="M 14.578125 0 C 14.503906 -0.25 14.429688 -0.484375 14.359375 -0.703125 C 14.285156 -0.921875 14.21875 -1.191406 14.15625 -1.515625 C 14.101562 -1.835938 14.066406 -2.25 14.046875 -2.75 C 14.035156 -3.257812 14.03125 -3.890625 14.03125 -4.640625 L 14.03125 -10.578125 C 14.03125 -12.335938 13.722656 -13.578125 13.109375 -14.296875 C 12.503906 -15.015625 11.515625 -15.375 10.140625 -15.375 L 8.09375 -15.375 L 8.09375 0 L 2.15625 0 L 2.15625 -37.78125 L 11.125 -37.78125 C 14.21875 -37.78125 16.457031 -37.054688 17.84375 -35.609375 C 19.226562 -34.171875 19.921875 -32 19.921875 -29.09375 L 19.921875 -26.125 C 19.921875 -22.238281 18.625 -19.679688 16.03125 -18.453125 C 17.539062 -17.847656 18.570312 -16.851562 19.125 -15.46875 C 19.6875 -14.082031 19.96875 -12.398438 19.96875 -10.421875 L 19.96875 -4.59375 C 19.96875 -3.65625 20.003906 -2.832031 20.078125 -2.125 C 20.148438 -1.425781 20.328125 -0.71875 20.609375 0 Z M 8.09375 -32.375 L 8.09375 -20.78125 L 10.421875 -20.78125 C 11.535156 -20.78125 12.40625 -21.066406 13.03125 -21.640625 C 13.664062 -22.210938 13.984375 -23.253906 13.984375 -24.765625 L 13.984375 -28.5 C 13.984375 -29.863281 13.738281 -30.847656 13.25 -31.453125 C 12.757812 -32.066406 11.992188 -32.375 10.953125 -32.375 Z M 8.09375 -32.375 "/></g></g></g><g fill="#00bf63" fill-opacity="1"><g transform="translate(119.48131, 52.25643)"><g><path d="M 8.09375 -21.859375 L 16.25 -21.859375 L 16.25 -16.453125 L 8.09375 -16.453125 L 8.09375 -5.390625 L 18.34375 -5.390625 L 18.34375 0 L 2.15625 0 L 2.15625 -37.78125 L 18.34375 -37.78125 L 18.34375 -32.375 L 8.09375 -32.375 Z M 8.09375 -21.859375 "/></g></g></g><g fill="#00bf63" fill-opacity="1"><g transform="translate(139.340764, 52.25643)"><g><path d="M 1.40625 -28.71875 C 1.40625 -31.769531 2.132812 -34.113281 3.59375 -35.75 C 5.050781 -37.382812 7.234375 -38.203125 10.140625 -38.203125 C 13.054688 -38.203125 15.242188 -37.382812 16.703125 -35.75 C 18.160156 -34.113281 18.890625 -31.769531 18.890625 -28.71875 L 18.890625 -27.25 L 13.28125 -27.25 L 13.28125 -29.09375 C 13.28125 -30.457031 13.019531 -31.414062 12.5 -31.96875 C 11.976562 -32.53125 11.25 -32.8125 10.3125 -32.8125 C 9.375 -32.8125 8.644531 -32.53125 8.125 -31.96875 C 7.601562 -31.414062 7.34375 -30.457031 7.34375 -29.09375 C 7.34375 -27.789062 7.628906 -26.644531 8.203125 -25.65625 C 8.773438 -24.664062 9.492188 -23.726562 10.359375 -22.84375 C 11.222656 -21.96875 12.148438 -21.085938 13.140625 -20.203125 C 14.128906 -19.328125 15.054688 -18.367188 15.921875 -17.328125 C 16.785156 -16.285156 17.503906 -15.097656 18.078125 -13.765625 C 18.648438 -12.429688 18.9375 -10.863281 18.9375 -9.0625 C 18.9375 -6.007812 18.191406 -3.660156 16.703125 -2.015625 C 15.210938 -0.378906 13.007812 0.4375 10.09375 0.4375 C 7.175781 0.4375 4.96875 -0.378906 3.46875 -2.015625 C 1.976562 -3.660156 1.234375 -6.007812 1.234375 -9.0625 L 1.234375 -11.65625 L 6.859375 -11.65625 L 6.859375 -8.6875 C 6.859375 -7.320312 7.132812 -6.367188 7.6875 -5.828125 C 8.25 -5.285156 9 -5.015625 9.9375 -5.015625 C 10.863281 -5.015625 11.601562 -5.285156 12.15625 -5.828125 C 12.71875 -6.367188 13 -7.320312 13 -8.6875 C 13 -9.976562 12.710938 -11.117188 12.140625 -12.109375 C 11.566406 -13.097656 10.847656 -14.035156 9.984375 -14.921875 C 9.117188 -15.804688 8.191406 -16.6875 7.203125 -17.5625 C 6.210938 -18.445312 5.285156 -19.410156 4.421875 -20.453125 C 3.554688 -21.492188 2.835938 -22.679688 2.265625 -24.015625 C 1.691406 -25.347656 1.40625 -26.914062 1.40625 -28.71875 Z M 1.40625 -28.71875 "/></g></g></g><g fill="#ffffff" fill-opacity="1"><g transform="translate(14.246702, 85.580097)"><g><path d="M 6.078125 -20.671875 C 7.773438 -20.671875 9 -20.273438 9.75 -19.484375 C 10.507812 -18.703125 10.890625 -17.515625 10.890625 -15.921875 L 10.890625 -15.171875 C 10.890625 -14.109375 10.722656 -13.234375 10.390625 -12.546875 C 10.054688 -11.859375 9.523438 -11.347656 8.796875 -11.015625 C 9.679688 -10.679688 10.304688 -10.132812 10.671875 -9.375 C 11.035156 -8.613281 11.21875 -7.679688 11.21875 -6.578125 L 11.21875 -4.90625 C 11.21875 -3.3125 10.800781 -2.09375 9.96875 -1.25 C 9.144531 -0.414062 7.921875 0 6.296875 0 L 1.1875 0 L 1.1875 -20.671875 Z M 4.421875 -9.296875 L 4.421875 -2.953125 L 6.296875 -2.953125 C 6.835938 -2.953125 7.25 -3.097656 7.53125 -3.390625 C 7.820312 -3.691406 7.96875 -4.222656 7.96875 -4.984375 L 7.96875 -6.796875 C 7.96875 -7.753906 7.804688 -8.410156 7.484375 -8.765625 C 7.160156 -9.117188 6.625 -9.296875 5.875 -9.296875 Z M 4.421875 -17.71875 L 4.421875 -12.25 L 5.703125 -12.25 C 6.304688 -12.25 6.78125 -12.40625 7.125 -12.71875 C 7.476562 -13.039062 7.65625 -13.613281 7.65625 -14.4375 L 7.65625 -15.59375 C 7.65625 -16.34375 7.519531 -16.882812 7.25 -17.21875 C 6.976562 -17.550781 6.5625 -17.71875 6 -17.71875 Z M 4.421875 -17.71875 "/></g></g></g><g fill="#ffffff" fill-opacity="1"><g transform="translate(26.235475, 85.580097)"><g><path d="M 11.6875 0 L 8.421875 0 L 7.859375 -3.75 L 3.875 -3.75 L 3.3125 0 L 0.328125 0 L 3.625 -20.671875 L 8.390625 -20.671875 Z M 4.28125 -6.5625 L 7.40625 -6.5625 L 5.84375 -17.015625 Z M 4.28125 -6.5625 "/></g></g></g><g fill="#ffffff" fill-opacity="1"><g transform="translate(38.253768, 85.580097)"><g><path d="M 6.078125 -20.671875 C 7.773438 -20.671875 9 -20.273438 9.75 -19.484375 C 10.507812 -18.703125 10.890625 -17.515625 10.890625 -15.921875 L 10.890625 -15.171875 C 10.890625 -14.109375 10.722656 -13.234375 10.390625 -12.546875 C 10.054688 -11.859375 9.523438 -11.347656 8.796875 -11.015625 C 9.679688 -10.679688 10.304688 -10.132812 10.671875 -9.375 C 11.035156 -8.613281 11.21875 -7.679688 11.21875 -6.578125 L 11.21875 -4.90625 C 11.21875 -3.3125 10.800781 -2.09375 9.96875 -1.25 C 9.144531 -0.414062 7.921875 0 6.296875 0 L 1.1875 0 L 1.1875 -20.671875 Z M 4.421875 -9.296875 L 4.421875 -2.953125 L 6.296875 -2.953125 C 6.835938 -2.953125 7.25 -3.097656 7.53125 -3.390625 C 7.820312 -3.691406 7.96875 -4.222656 7.96875 -4.984375 L 7.96875 -6.796875 C 7.96875 -7.753906 7.804688 -8.410156 7.484375 -8.765625 C 7.160156 -9.117188 6.625 -9.296875 5.875 -9.296875 Z M 4.421875 -17.71875 L 4.421875 -12.25 L 5.703125 -12.25 C 6.304688 -12.25 6.78125 -12.40625 7.125 -12.71875 C 7.476562 -13.039062 7.65625 -13.613281 7.65625 -14.4375 L 7.65625 -15.59375 C 7.65625 -16.34375 7.519531 -16.882812 7.25 -17.21875 C 6.976562 -17.550781 6.5625 -17.71875 6 -17.71875 Z M 4.421875 -17.71875 "/></g></g></g><g fill="#ffffff" fill-opacity="1"><g transform="translate(50.242541, 85.580097)"><g><path d="M 11.6875 0 L 8.421875 0 L 7.859375 -3.75 L 3.875 -3.75 L 3.3125 0 L 0.328125 0 L 3.625 -20.671875 L 8.390625 -20.671875 Z M 4.28125 -6.5625 L 7.40625 -6.5625 L 5.84375 -17.015625 Z M 4.28125 -6.5625 "/></g></g></g><g fill="#ffffff" fill-opacity="1"><g transform="translate(62.260834, 85.580097)"><g><path d="M 4.421875 0 L 1.1875 0 L 1.1875 -20.671875 L 4.421875 -20.671875 L 4.421875 -11.8125 L 8.125 -11.8125 L 8.125 -20.671875 L 11.421875 -20.671875 L 11.421875 0 L 8.125 0 L 8.125 -8.859375 L 4.421875 -8.859375 Z M 4.421875 0 "/></g></g></g><g fill="#ffffff" fill-opacity="1"><g transform="translate(74.869707, 85.580097)"><g><path d="M 4.15625 -4.75 C 4.15625 -4 4.304688 -3.472656 4.609375 -3.171875 C 4.921875 -2.867188 5.332031 -2.71875 5.84375 -2.71875 C 6.351562 -2.71875 6.757812 -2.867188 7.0625 -3.171875 C 7.375 -3.472656 7.53125 -4 7.53125 -4.75 L 7.53125 -15.921875 C 7.53125 -16.671875 7.375 -17.195312 7.0625 -17.5 C 6.757812 -17.800781 6.351562 -17.953125 5.84375 -17.953125 C 5.332031 -17.953125 4.921875 -17.800781 4.609375 -17.5 C 4.304688 -17.195312 4.15625 -16.671875 4.15625 -15.921875 Z M 0.921875 -15.703125 C 0.921875 -17.378906 1.34375 -18.664062 2.1875 -19.5625 C 3.03125 -20.457031 4.25 -20.90625 5.84375 -20.90625 C 7.4375 -20.90625 8.65625 -20.457031 9.5 -19.5625 C 10.351562 -18.664062 10.78125 -17.378906 10.78125 -15.703125 L 10.78125 -4.96875 C 10.78125 -3.289062 10.351562 -2.003906 9.5 -1.109375 C 8.65625 -0.210938 7.4375 0.234375 5.84375 0.234375 C 4.25 0.234375 3.03125 -0.210938 2.1875 -1.109375 C 1.34375 -2.003906 0.921875 -3.289062 0.921875 -4.96875 Z M 0.921875 -15.703125 "/></g></g></g><g fill="#ffffff" fill-opacity="1"><g transform="translate(86.563184, 85.580097)"><g><path d="M 4.21875 -6.84375 L 0.125 -20.671875 L 3.515625 -20.671875 L 6 -11.25 L 8.46875 -20.671875 L 11.578125 -20.671875 L 7.46875 -6.84375 L 7.46875 0 L 4.21875 0 Z M 4.21875 -6.84375 "/></g></g></g><g fill="#ffffff" fill-opacity="1"><g transform="translate(98.256661, 85.580097)"><g><path d="M 4.15625 -4.75 C 4.15625 -4 4.304688 -3.472656 4.609375 -3.171875 C 4.921875 -2.867188 5.332031 -2.71875 5.84375 -2.71875 C 6.351562 -2.71875 6.757812 -2.867188 7.0625 -3.171875 C 7.375 -3.472656 7.53125 -4 7.53125 -4.75 L 7.53125 -15.921875 C 7.53125 -16.671875 7.375 -17.195312 7.0625 -17.5 C 6.757812 -17.800781 6.351562 -17.953125 5.84375 -17.953125 C 5.332031 -17.953125 4.921875 -17.800781 4.609375 -17.5 C 4.304688 -17.195312 4.15625 -16.671875 4.15625 -15.921875 Z M 0.921875 -15.703125 C 0.921875 -17.378906 1.34375 -18.664062 2.1875 -19.5625 C 3.03125 -20.457031 4.25 -20.90625 5.84375 -20.90625 C 7.4375 -20.90625 8.65625 -20.457031 9.5 -19.5625 C 10.351562 -18.664062 10.78125 -17.378906 10.78125 -15.703125 L 10.78125 -4.96875 C 10.78125 -3.289062 10.351562 -2.003906 9.5 -1.109375 C 8.65625 -0.210938 7.4375 0.234375 5.84375 0.234375 C 4.25 0.234375 3.03125 -0.210938 2.1875 -1.109375 C 1.34375 -2.003906 0.921875 -3.289062 0.921875 -4.96875 Z M 0.921875 -15.703125 "/></g></g></g></svg>